{
	"patcher" : 	{
		"fileversion" : 1,
		"rect" : [ 224.0, 255.0, 730.0, 543.0 ],
		"bglocked" : 0,
		"defrect" : [ 224.0, 255.0, 730.0, 543.0 ],
		"openrect" : [ 0.0, 0.0, 0.0, 0.0 ],
		"openinpresentation" : 0,
		"default_fontsize" : 20.0,
		"default_fontface" : 0,
		"default_fontname" : "Arial",
		"gridonopen" : 0,
		"gridsize" : [ 15.0, 15.0 ],
		"gridsnaponopen" : 0,
		"toolbarvisible" : 1,
		"boxanimatetime" : 200,
		"imprint" : 0,
		"enablehscroll" : 1,
		"enablevscroll" : 1,
		"boxes" : [ 			{
				"box" : 				{
					"maxclass" : "newobj",
					"text" : "p LimitDur",
					"id" : "obj-1",
					"numinlets" : 2,
					"fontsize" : 9.0,
					"patching_rect" : [ 511.0, 194.0, 55.0, 17.0 ],
					"numoutlets" : 1,
					"outlettype" : [ "float" ],
					"fontname" : "Arial",
					"patcher" : 					{
						"fileversion" : 1,
						"rect" : [ 50.0, 40.0, 356.0, 304.0 ],
						"bglocked" : 0,
						"defrect" : [ 50.0, 40.0, 356.0, 304.0 ],
						"openrect" : [ 0.0, 0.0, 0.0, 0.0 ],
						"openinpresentation" : 0,
						"default_fontsize" : 20.0,
						"default_fontface" : 0,
						"default_fontname" : "Arial",
						"gridonopen" : 0,
						"gridsize" : [ 15.0, 15.0 ],
						"gridsnaponopen" : 0,
						"toolbarvisible" : 1,
						"boxanimatetime" : 200,
						"imprint" : 0,
						"enablehscroll" : 1,
						"enablevscroll" : 1,
						"boxes" : [ 							{
								"box" : 								{
									"maxclass" : "flonum",
									"htextcolor" : [ 0.870588, 0.870588, 0.870588, 1.0 ],
									"triscale" : 0.9,
									"id" : "obj-1",
									"numinlets" : 1,
									"fontsize" : 9.0,
									"patching_rect" : [ 129.0, 98.0, 35.0, 17.0 ],
									"numoutlets" : 2,
									"minimum" : 1.0,
									"bgcolor" : [ 0.866667, 0.866667, 0.866667, 1.0 ],
									"outlettype" : [ "float", "bang" ],
									"fontname" : "Arial"
								}

							}
, 							{
								"box" : 								{
									"maxclass" : "flonum",
									"htextcolor" : [ 0.870588, 0.870588, 0.870588, 1.0 ],
									"triscale" : 0.9,
									"id" : "obj-2",
									"numinlets" : 1,
									"fontsize" : 9.0,
									"patching_rect" : [ 109.0, 125.0, 35.0, 17.0 ],
									"numoutlets" : 2,
									"minimum" : 1.0,
									"bgcolor" : [ 0.866667, 0.866667, 0.866667, 1.0 ],
									"outlettype" : [ "float", "bang" ],
									"fontname" : "Arial"
								}

							}
, 							{
								"box" : 								{
									"maxclass" : "newobj",
									"text" : "- 1.",
									"id" : "obj-3",
									"numinlets" : 2,
									"fontsize" : 9.0,
									"patching_rect" : [ 98.0, 98.0, 27.0, 17.0 ],
									"numoutlets" : 1,
									"outlettype" : [ "float" ],
									"fontname" : "Arial"
								}

							}
, 							{
								"box" : 								{
									"maxclass" : "newobj",
									"text" : "!/ 1000.",
									"id" : "obj-4",
									"numinlets" : 2,
									"fontsize" : 9.0,
									"patching_rect" : [ 98.0, 74.0, 45.0, 17.0 ],
									"numoutlets" : 1,
									"outlettype" : [ "float" ],
									"fontname" : "Arial"
								}

							}
, 							{
								"box" : 								{
									"maxclass" : "newobj",
									"text" : "t b f",
									"id" : "obj-5",
									"numinlets" : 1,
									"fontsize" : 9.0,
									"patching_rect" : [ 130.0, 155.0, 50.0, 17.0 ],
									"numoutlets" : 2,
									"outlettype" : [ "bang", "float" ],
									"fontname" : "Arial"
								}

							}
, 							{
								"box" : 								{
									"maxclass" : "flonum",
									"htextcolor" : [ 0.870588, 0.870588, 0.870588, 1.0 ],
									"triscale" : 0.9,
									"id" : "obj-6",
									"numinlets" : 1,
									"fontsize" : 9.0,
									"patching_rect" : [ 213.0, 49.0, 35.0, 17.0 ],
									"numoutlets" : 2,
									"bgcolor" : [ 0.866667, 0.866667, 0.866667, 1.0 ],
									"outlettype" : [ "float", "bang" ],
									"fontname" : "Arial"
								}

							}
, 							{
								"box" : 								{
									"maxclass" : "newobj",
									"text" : "if $f1 < $f2 then $f1 else $f2",
									"id" : "obj-7",
									"numinlets" : 2,
									"fontsize" : 9.0,
									"patching_rect" : [ 33.0, 183.0, 142.0, 17.0 ],
									"numoutlets" : 1,
									"outlettype" : [ "" ],
									"fontname" : "Arial"
								}

							}
, 							{
								"box" : 								{
									"maxclass" : "flonum",
									"htextcolor" : [ 0.870588, 0.870588, 0.870588, 1.0 ],
									"triscale" : 0.9,
									"id" : "obj-8",
									"numinlets" : 1,
									"fontsize" : 9.0,
									"patching_rect" : [ 98.0, 50.0, 82.0, 17.0 ],
									"numoutlets" : 2,
									"bgcolor" : [ 0.866667, 0.866667, 0.866667, 1.0 ],
									"outlettype" : [ "float", "bang" ],
									"fontname" : "Arial"
								}

							}
, 							{
								"box" : 								{
									"maxclass" : "flonum",
									"htextcolor" : [ 0.870588, 0.870588, 0.870588, 1.0 ],
									"triscale" : 0.9,
									"id" : "obj-9",
									"numinlets" : 1,
									"fontsize" : 9.0,
									"patching_rect" : [ 97.0, 205.0, 35.0, 17.0 ],
									"numoutlets" : 2,
									"minimum" : 1.0,
									"bgcolor" : [ 0.866667, 0.866667, 0.866667, 1.0 ],
									"outlettype" : [ "float", "bang" ],
									"fontname" : "Arial"
								}

							}
, 							{
								"box" : 								{
									"maxclass" : "comment",
									"text" : "grain duration in ms",
									"id" : "obj-10",
									"numinlets" : 1,
									"fontsize" : 9.0,
									"patching_rect" : [ 134.0, 206.0, 100.0, 17.0 ],
									"numoutlets" : 0,
									"fontname" : "Arial"
								}

							}
, 							{
								"box" : 								{
									"maxclass" : "comment",
									"text" : "Actual grain dur will be the smaller of the specified duration and phasor~ period - 1.",
									"linecount" : 3,
									"id" : "obj-11",
									"numinlets" : 1,
									"fontsize" : 9.0,
									"patching_rect" : [ 189.0, 164.0, 150.0, 38.0 ],
									"numoutlets" : 0,
									"fontname" : "Arial"
								}

							}
, 							{
								"box" : 								{
									"maxclass" : "outlet",
									"id" : "obj-12",
									"numinlets" : 1,
									"patching_rect" : [ 97.0, 233.0, 15.0, 15.0 ],
									"numoutlets" : 0,
									"comment" : "Grain Dur in MS"
								}

							}
, 							{
								"box" : 								{
									"maxclass" : "inlet",
									"id" : "obj-13",
									"numinlets" : 0,
									"patching_rect" : [ 213.0, 29.0, 15.0, 15.0 ],
									"numoutlets" : 1,
									"outlettype" : [ "float" ],
									"comment" : "Desired grain dur in Ms"
								}

							}
, 							{
								"box" : 								{
									"maxclass" : "inlet",
									"id" : "obj-14",
									"numinlets" : 0,
									"patching_rect" : [ 98.0, 29.0, 15.0, 15.0 ],
									"numoutlets" : 1,
									"outlettype" : [ "float" ],
									"comment" : "max duration in ms"
								}

							}
, 							{
								"box" : 								{
									"maxclass" : "comment",
									"text" : "Phasor Hz",
									"id" : "obj-15",
									"numinlets" : 1,
									"fontsize" : 9.0,
									"patching_rect" : [ 26.0, 31.0, 65.0, 17.0 ],
									"numoutlets" : 0,
									"fontname" : "Arial"
								}

							}
, 							{
								"box" : 								{
									"maxclass" : "comment",
									"text" : "Max Grain Dur in Ms",
									"id" : "obj-16",
									"numinlets" : 1,
									"fontsize" : 9.0,
									"patching_rect" : [ 236.0, 29.0, 100.0, 17.0 ],
									"numoutlets" : 0,
									"fontname" : "Arial"
								}

							}
 ],
						"lines" : [ 							{
								"patchline" : 								{
									"source" : [ "obj-13", 0 ],
									"destination" : [ "obj-6", 0 ],
									"hidden" : 0,
									"midpoints" : [  ]
								}

							}
, 							{
								"patchline" : 								{
									"source" : [ "obj-5", 1 ],
									"destination" : [ "obj-7", 1 ],
									"hidden" : 0,
									"midpoints" : [ 170.5, 176.0, 165.5, 176.0 ]
								}

							}
, 							{
								"patchline" : 								{
									"source" : [ "obj-6", 0 ],
									"destination" : [ "obj-5", 0 ],
									"hidden" : 0,
									"midpoints" : [ 222.5, 149.0, 139.5, 149.0 ]
								}

							}
, 							{
								"patchline" : 								{
									"source" : [ "obj-4", 0 ],
									"destination" : [ "obj-1", 0 ],
									"hidden" : 0,
									"midpoints" : [ 107.5, 94.0, 138.5, 94.0 ]
								}

							}
, 							{
								"patchline" : 								{
									"source" : [ "obj-3", 0 ],
									"destination" : [ "obj-2", 0 ],
									"hidden" : 0,
									"midpoints" : [ 107.5, 119.0, 118.5, 119.0 ]
								}

							}
, 							{
								"patchline" : 								{
									"source" : [ "obj-4", 0 ],
									"destination" : [ "obj-3", 0 ],
									"hidden" : 0,
									"midpoints" : [  ]
								}

							}
, 							{
								"patchline" : 								{
									"source" : [ "obj-8", 0 ],
									"destination" : [ "obj-4", 0 ],
									"hidden" : 0,
									"midpoints" : [  ]
								}

							}
, 							{
								"patchline" : 								{
									"source" : [ "obj-14", 0 ],
									"destination" : [ "obj-8", 0 ],
									"hidden" : 0,
									"midpoints" : [  ]
								}

							}
, 							{
								"patchline" : 								{
									"source" : [ "obj-9", 0 ],
									"destination" : [ "obj-12", 0 ],
									"hidden" : 0,
									"midpoints" : [  ]
								}

							}
, 							{
								"patchline" : 								{
									"source" : [ "obj-7", 0 ],
									"destination" : [ "obj-9", 0 ],
									"hidden" : 0,
									"midpoints" : [ 42.5, 202.0, 106.5, 202.0 ]
								}

							}
, 							{
								"patchline" : 								{
									"source" : [ "obj-5", 0 ],
									"destination" : [ "obj-7", 0 ],
									"hidden" : 0,
									"midpoints" : [ 139.5, 178.0, 42.5, 178.0 ]
								}

							}
, 							{
								"patchline" : 								{
									"source" : [ "obj-3", 0 ],
									"destination" : [ "obj-7", 0 ],
									"hidden" : 0,
									"midpoints" : [ 107.5, 154.0, 42.5, 154.0 ]
								}

							}
 ]
					}
,
					"saved_object_attributes" : 					{
						"fontface" : 0,
						"default_fontface" : 0,
						"fontsize" : 20.0,
						"globalpatchername" : "",
						"default_fontname" : "Arial",
						"default_fontsize" : 20.0,
						"fontname" : "Arial"
					}

				}

			}
, 			{
				"box" : 				{
					"maxclass" : "message",
					"text" : "#3",
					"id" : "obj-2",
					"numinlets" : 2,
					"fontsize" : 9.0,
					"patching_rect" : [ 485.0, 102.0, 21.0, 15.0 ],
					"numoutlets" : 1,
					"outlettype" : [ "" ],
					"fontname" : "Arial"
				}

			}
, 			{
				"box" : 				{
					"maxclass" : "newobj",
					"text" : "sig~",
					"id" : "obj-3",
					"numinlets" : 1,
					"fontsize" : 9.0,
					"patching_rect" : [ 511.0, 221.0, 27.0, 17.0 ],
					"numoutlets" : 1,
					"outlettype" : [ "signal" ],
					"fontname" : "Arial"
				}

			}
, 			{
				"box" : 				{
					"maxclass" : "newobj",
					"text" : "sig~",
					"id" : "obj-4",
					"numinlets" : 1,
					"fontsize" : 9.0,
					"patching_rect" : [ 318.0, 112.0, 27.0, 17.0 ],
					"numoutlets" : 1,
					"outlettype" : [ "signal" ],
					"fontname" : "Arial"
				}

			}
, 			{
				"box" : 				{
					"maxclass" : "newobj",
					"text" : "sig~",
					"id" : "obj-5",
					"numinlets" : 1,
					"fontsize" : 9.0,
					"patching_rect" : [ 31.0, 106.0, 27.0, 17.0 ],
					"numoutlets" : 1,
					"outlettype" : [ "signal" ],
					"fontname" : "Arial"
				}

			}
, 			{
				"box" : 				{
					"maxclass" : "comment",
					"text" : "other messages",
					"linecount" : 2,
					"id" : "obj-6",
					"numinlets" : 1,
					"fontsize" : 9.0,
					"patching_rect" : [ 661.0, 54.0, 54.0, 27.0 ],
					"numoutlets" : 0,
					"fontname" : "Arial"
				}

			}
, 			{
				"box" : 				{
					"maxclass" : "inlet",
					"id" : "obj-7",
					"numinlets" : 0,
					"patching_rect" : [ 666.0, 85.0, 15.0, 15.0 ],
					"numoutlets" : 1,
					"outlettype" : [ "" ],
					"comment" : "other messages"
				}

			}
, 			{
				"box" : 				{
					"maxclass" : "newobj",
					"text" : "/ 1.",
					"id" : "obj-8",
					"numinlets" : 2,
					"fontsize" : 9.0,
					"patching_rect" : [ 468.0, 121.0, 27.0, 17.0 ],
					"numoutlets" : 1,
					"outlettype" : [ "float" ],
					"fontname" : "Arial"
				}

			}
, 			{
				"box" : 				{
					"maxclass" : "newobj",
					"text" : "p RandOffset",
					"id" : "obj-9",
					"numinlets" : 1,
					"fontsize" : 9.0,
					"patching_rect" : [ 222.0, 180.0, 65.0, 17.0 ],
					"numoutlets" : 1,
					"outlettype" : [ "signal" ],
					"fontname" : "Arial",
					"patcher" : 					{
						"fileversion" : 1,
						"rect" : [ 39.0, 55.0, 400.0, 326.0 ],
						"bglocked" : 0,
						"defrect" : [ 39.0, 55.0, 400.0, 326.0 ],
						"openrect" : [ 0.0, 0.0, 0.0, 0.0 ],
						"openinpresentation" : 0,
						"default_fontsize" : 20.0,
						"default_fontface" : 0,
						"default_fontname" : "Arial",
						"gridonopen" : 0,
						"gridsize" : [ 15.0, 15.0 ],
						"gridsnaponopen" : 0,
						"toolbarvisible" : 1,
						"boxanimatetime" : 200,
						"imprint" : 0,
						"enablehscroll" : 1,
						"enablevscroll" : 1,
						"boxes" : [ 							{
								"box" : 								{
									"maxclass" : "newobj",
									"text" : "* 1.",
									"id" : "obj-1",
									"numinlets" : 2,
									"fontsize" : 9.0,
									"patching_rect" : [ 190.0, 185.0, 27.0, 17.0 ],
									"numoutlets" : 1,
									"outlettype" : [ "float" ],
									"fontname" : "Arial"
								}

							}
, 							{
								"box" : 								{
									"maxclass" : "number",
									"htextcolor" : [ 0.870588, 0.870588, 0.870588, 1.0 ],
									"triscale" : 0.9,
									"id" : "obj-2",
									"numinlets" : 1,
									"fontsize" : 9.0,
									"patching_rect" : [ 223.0, 162.0, 35.0, 17.0 ],
									"numoutlets" : 2,
									"bgcolor" : [ 0.866667, 0.866667, 0.866667, 1.0 ],
									"outlettype" : [ "int", "bang" ],
									"fontname" : "Arial"
								}

							}
, 							{
								"box" : 								{
									"maxclass" : "newobj",
									"text" : "value buffsize",
									"id" : "obj-3",
									"numinlets" : 1,
									"fontsize" : 9.0,
									"patching_rect" : [ 223.0, 139.0, 71.0, 17.0 ],
									"numoutlets" : 1,
									"outlettype" : [ "" ],
									"fontname" : "Arial"
								}

							}
, 							{
								"box" : 								{
									"maxclass" : "newobj",
									"text" : "t f b",
									"id" : "obj-4",
									"numinlets" : 1,
									"fontsize" : 9.0,
									"patching_rect" : [ 190.0, 107.0, 27.0, 17.0 ],
									"numoutlets" : 2,
									"outlettype" : [ "float", "bang" ],
									"fontname" : "Arial"
								}

							}
, 							{
								"box" : 								{
									"maxclass" : "newobj",
									"text" : "*~ 1.",
									"id" : "obj-5",
									"numinlets" : 2,
									"fontsize" : 9.0,
									"patching_rect" : [ 67.0, 211.0, 33.0, 17.0 ],
									"numoutlets" : 1,
									"outlettype" : [ "signal" ],
									"fontname" : "Arial"
								}

							}
, 							{
								"box" : 								{
									"maxclass" : "number",
									"htextcolor" : [ 0.870588, 0.870588, 0.870588, 1.0 ],
									"triscale" : 0.9,
									"id" : "obj-6",
									"numinlets" : 1,
									"fontsize" : 9.0,
									"patching_rect" : [ 190.0, 64.0, 35.0, 17.0 ],
									"numoutlets" : 2,
									"bgcolor" : [ 0.866667, 0.866667, 0.866667, 1.0 ],
									"outlettype" : [ "int", "bang" ],
									"fontname" : "Arial"
								}

							}
, 							{
								"box" : 								{
									"maxclass" : "newobj",
									"text" : "/ 200.",
									"id" : "obj-7",
									"numinlets" : 2,
									"fontsize" : 9.0,
									"patching_rect" : [ 190.0, 85.0, 38.0, 17.0 ],
									"numoutlets" : 1,
									"outlettype" : [ "float" ],
									"fontname" : "Arial"
								}

							}
, 							{
								"box" : 								{
									"maxclass" : "newobj",
									"text" : "noise~",
									"id" : "obj-8",
									"numinlets" : 1,
									"fontsize" : 9.0,
									"patching_rect" : [ 67.0, 48.0, 35.0, 17.0 ],
									"numoutlets" : 1,
									"outlettype" : [ "signal" ],
									"fontname" : "Arial"
								}

							}
, 							{
								"box" : 								{
									"maxclass" : "outlet",
									"id" : "obj-9",
									"numinlets" : 1,
									"patching_rect" : [ 67.0, 236.0, 15.0, 15.0 ],
									"numoutlets" : 0,
									"comment" : "Rand Offset Amount in MS"
								}

							}
, 							{
								"box" : 								{
									"maxclass" : "inlet",
									"id" : "obj-10",
									"numinlets" : 0,
									"patching_rect" : [ 190.0, 44.0, 15.0, 15.0 ],
									"numoutlets" : 1,
									"outlettype" : [ "" ],
									"comment" : "Random Offset Pct"
								}

							}
, 							{
								"box" : 								{
									"maxclass" : "comment",
									"text" : "Max +/- 50%",
									"id" : "obj-11",
									"numinlets" : 1,
									"fontsize" : 9.0,
									"patching_rect" : [ 233.0, 87.0, 100.0, 17.0 ],
									"numoutlets" : 0,
									"fontname" : "Arial"
								}

							}
 ],
						"lines" : [ 							{
								"patchline" : 								{
									"source" : [ "obj-3", 0 ],
									"destination" : [ "obj-2", 0 ],
									"hidden" : 0,
									"midpoints" : [  ]
								}

							}
, 							{
								"patchline" : 								{
									"source" : [ "obj-4", 1 ],
									"destination" : [ "obj-3", 0 ],
									"hidden" : 0,
									"midpoints" : [ 207.5, 132.0, 232.5, 132.0 ]
								}

							}
, 							{
								"patchline" : 								{
									"source" : [ "obj-2", 0 ],
									"destination" : [ "obj-1", 1 ],
									"hidden" : 0,
									"midpoints" : [ 232.5, 182.0, 207.5, 182.0 ]
								}

							}
, 							{
								"patchline" : 								{
									"source" : [ "obj-4", 0 ],
									"destination" : [ "obj-1", 0 ],
									"hidden" : 0,
									"midpoints" : [  ]
								}

							}
, 							{
								"patchline" : 								{
									"source" : [ "obj-7", 0 ],
									"destination" : [ "obj-4", 0 ],
									"hidden" : 0,
									"midpoints" : [  ]
								}

							}
, 							{
								"patchline" : 								{
									"source" : [ "obj-6", 0 ],
									"destination" : [ "obj-7", 0 ],
									"hidden" : 0,
									"midpoints" : [  ]
								}

							}
, 							{
								"patchline" : 								{
									"source" : [ "obj-10", 0 ],
									"destination" : [ "obj-6", 0 ],
									"hidden" : 0,
									"midpoints" : [  ]
								}

							}
, 							{
								"patchline" : 								{
									"source" : [ "obj-1", 0 ],
									"destination" : [ "obj-5", 1 ],
									"hidden" : 0,
									"midpoints" : [ 199.5, 205.0, 90.5, 205.0 ]
								}

							}
, 							{
								"patchline" : 								{
									"source" : [ "obj-5", 0 ],
									"destination" : [ "obj-9", 0 ],
									"hidden" : 0,
									"midpoints" : [  ]
								}

							}
, 							{
								"patchline" : 								{
									"source" : [ "obj-8", 0 ],
									"destination" : [ "obj-5", 0 ],
									"hidden" : 0,
									"midpoints" : [  ]
								}

							}
 ]
					}
,
					"saved_object_attributes" : 					{
						"fontface" : 0,
						"default_fontface" : 0,
						"fontsize" : 20.0,
						"globalpatchername" : "",
						"default_fontname" : "Arial",
						"default_fontsize" : 20.0,
						"fontname" : "Arial"
					}

				}

			}
, 			{
				"box" : 				{
					"maxclass" : "inlet",
					"id" : "obj-10",
					"numinlets" : 0,
					"patching_rect" : [ 222.0, 70.0, 15.0, 15.0 ],
					"numoutlets" : 1,
					"outlettype" : [ "" ],
					"comment" : "Random Offset Pct"
				}

			}
, 			{
				"box" : 				{
					"maxclass" : "outlet",
					"id" : "obj-11",
					"numinlets" : 1,
					"patching_rect" : [ 316.0, 430.0, 15.0, 15.0 ],
					"numoutlets" : 0,
					"comment" : ""
				}

			}
, 			{
				"box" : 				{
					"maxclass" : "newobj",
					"text" : "p RandPitch",
					"id" : "obj-12",
					"numinlets" : 1,
					"fontsize" : 9.0,
					"patching_rect" : [ 390.0, 182.0, 60.0, 17.0 ],
					"numoutlets" : 1,
					"outlettype" : [ "signal" ],
					"fontname" : "Arial",
					"patcher" : 					{
						"fileversion" : 1,
						"rect" : [ 50.0, 40.0, 400.0, 326.0 ],
						"bglocked" : 0,
						"defrect" : [ 50.0, 40.0, 400.0, 326.0 ],
						"openrect" : [ 0.0, 0.0, 0.0, 0.0 ],
						"openinpresentation" : 0,
						"default_fontsize" : 20.0,
						"default_fontface" : 0,
						"default_fontname" : "Arial",
						"gridonopen" : 0,
						"gridsize" : [ 15.0, 15.0 ],
						"gridsnaponopen" : 0,
						"toolbarvisible" : 1,
						"boxanimatetime" : 200,
						"imprint" : 0,
						"enablehscroll" : 1,
						"enablevscroll" : 1,
						"boxes" : [ 							{
								"box" : 								{
									"maxclass" : "flonum",
									"htextcolor" : [ 0.870588, 0.870588, 0.870588, 1.0 ],
									"triscale" : 0.9,
									"id" : "obj-1",
									"numinlets" : 1,
									"fontsize" : 9.0,
									"patching_rect" : [ 232.0, 54.0, 39.0, 17.0 ],
									"numoutlets" : 2,
									"bgcolor" : [ 0.866667, 0.866667, 0.866667, 1.0 ],
									"outlettype" : [ "float", "bang" ],
									"fontname" : "Arial"
								}

							}
, 							{
								"box" : 								{
									"maxclass" : "newobj",
									"text" : "+~ 1.",
									"id" : "obj-2",
									"numinlets" : 2,
									"fontsize" : 9.0,
									"patching_rect" : [ 160.0, 136.0, 38.0, 17.0 ],
									"numoutlets" : 1,
									"outlettype" : [ "signal" ],
									"fontname" : "Arial"
								}

							}
, 							{
								"box" : 								{
									"maxclass" : "newobj",
									"text" : "*~ 1.",
									"id" : "obj-3",
									"numinlets" : 2,
									"fontsize" : 9.0,
									"patching_rect" : [ 160.0, 113.0, 33.0, 17.0 ],
									"numoutlets" : 1,
									"outlettype" : [ "signal" ],
									"fontname" : "Arial"
								}

							}
, 							{
								"box" : 								{
									"maxclass" : "newobj",
									"text" : "/ 100.",
									"id" : "obj-4",
									"numinlets" : 2,
									"fontsize" : 9.0,
									"patching_rect" : [ 232.0, 73.0, 38.0, 17.0 ],
									"numoutlets" : 1,
									"outlettype" : [ "float" ],
									"fontname" : "Arial"
								}

							}
, 							{
								"box" : 								{
									"maxclass" : "newobj",
									"text" : "noise~",
									"id" : "obj-5",
									"numinlets" : 1,
									"fontsize" : 9.0,
									"patching_rect" : [ 160.0, 79.0, 35.0, 17.0 ],
									"numoutlets" : 1,
									"outlettype" : [ "signal" ],
									"fontname" : "Arial"
								}

							}
, 							{
								"box" : 								{
									"maxclass" : "outlet",
									"id" : "obj-6",
									"numinlets" : 1,
									"patching_rect" : [ 160.0, 163.0, 15.0, 15.0 ],
									"numoutlets" : 0,
									"comment" : "Rand Pitch Factor"
								}

							}
, 							{
								"box" : 								{
									"maxclass" : "inlet",
									"id" : "obj-7",
									"numinlets" : 0,
									"patching_rect" : [ 232.0, 32.0, 15.0, 15.0 ],
									"numoutlets" : 1,
									"outlettype" : [ "" ],
									"comment" : "Rand Pitch Pct"
								}

							}
 ],
						"lines" : [ 							{
								"patchline" : 								{
									"source" : [ "obj-1", 0 ],
									"destination" : [ "obj-4", 0 ],
									"hidden" : 0,
									"midpoints" : [  ]
								}

							}
, 							{
								"patchline" : 								{
									"source" : [ "obj-7", 0 ],
									"destination" : [ "obj-1", 0 ],
									"hidden" : 0,
									"midpoints" : [  ]
								}

							}
, 							{
								"patchline" : 								{
									"source" : [ "obj-4", 0 ],
									"destination" : [ "obj-3", 1 ],
									"hidden" : 0,
									"midpoints" : [ 241.5, 104.0, 183.5, 104.0 ]
								}

							}
, 							{
								"patchline" : 								{
									"source" : [ "obj-2", 0 ],
									"destination" : [ "obj-6", 0 ],
									"hidden" : 0,
									"midpoints" : [  ]
								}

							}
, 							{
								"patchline" : 								{
									"source" : [ "obj-3", 0 ],
									"destination" : [ "obj-2", 0 ],
									"hidden" : 0,
									"midpoints" : [  ]
								}

							}
, 							{
								"patchline" : 								{
									"source" : [ "obj-5", 0 ],
									"destination" : [ "obj-3", 0 ],
									"hidden" : 0,
									"midpoints" : [  ]
								}

							}
 ]
					}
,
					"saved_object_attributes" : 					{
						"fontface" : 0,
						"default_fontface" : 0,
						"fontsize" : 20.0,
						"globalpatchername" : "",
						"default_fontname" : "Arial",
						"default_fontsize" : 20.0,
						"fontname" : "Arial"
					}

				}

			}
, 			{
				"box" : 				{
					"maxclass" : "inlet",
					"id" : "obj-13",
					"numinlets" : 0,
					"patching_rect" : [ 390.0, 68.0, 15.0, 15.0 ],
					"numoutlets" : 1,
					"outlettype" : [ "" ],
					"comment" : "Pitch Rand Pct"
				}

			}
, 			{
				"box" : 				{
					"maxclass" : "newobj",
					"text" : "poly~ grpoly2~ #3 args #1 #2 #3",
					"id" : "obj-14",
					"numinlets" : 7,
					"fontsize" : 9.0,
					"patching_rect" : [ 95.0, 406.0, 232.0, 17.0 ],
					"numoutlets" : 2,
					"outlettype" : [ "signal", "signal" ],
					"fontname" : "Arial"
				}

			}
, 			{
				"box" : 				{
					"maxclass" : "flonum",
					"htextcolor" : [ 0.870588, 0.870588, 0.870588, 1.0 ],
					"triscale" : 0.9,
					"id" : "obj-15",
					"numinlets" : 1,
					"fontsize" : 9.0,
					"patching_rect" : [ 318.0, 91.0, 59.0, 17.0 ],
					"numoutlets" : 2,
					"bgcolor" : [ 0.866667, 0.866667, 0.866667, 1.0 ],
					"outlettype" : [ "float", "bang" ],
					"fontname" : "Arial"
				}

			}
, 			{
				"box" : 				{
					"maxclass" : "inlet",
					"id" : "obj-16",
					"numinlets" : 0,
					"patching_rect" : [ 547.0, 69.0, 15.0, 15.0 ],
					"numoutlets" : 1,
					"outlettype" : [ "" ],
					"comment" : "Grain Dur in Ms"
				}

			}
, 			{
				"box" : 				{
					"maxclass" : "inlet",
					"id" : "obj-17",
					"numinlets" : 0,
					"patching_rect" : [ 468.0, 68.0, 15.0, 15.0 ],
					"numoutlets" : 1,
					"outlettype" : [ "" ],
					"comment" : "Grain Freq"
				}

			}
, 			{
				"box" : 				{
					"maxclass" : "flonum",
					"htextcolor" : [ 0.870588, 0.870588, 0.870588, 1.0 ],
					"triscale" : 0.9,
					"id" : "obj-18",
					"numinlets" : 1,
					"fontsize" : 9.0,
					"patching_rect" : [ 547.0, 88.0, 74.0, 17.0 ],
					"numoutlets" : 2,
					"minimum" : 1.0,
					"bgcolor" : [ 0.866667, 0.866667, 0.866667, 1.0 ],
					"outlettype" : [ "float", "bang" ],
					"fontname" : "Arial"
				}

			}
, 			{
				"box" : 				{
					"maxclass" : "flonum",
					"htextcolor" : [ 0.870588, 0.870588, 0.870588, 1.0 ],
					"cantchange" : 1,
					"triscale" : 0.9,
					"id" : "obj-19",
					"numinlets" : 1,
					"fontsize" : 9.0,
					"patching_rect" : [ 468.0, 147.0, 82.0, 17.0 ],
					"numoutlets" : 2,
					"bgcolor" : [ 0.866667, 0.866667, 0.866667, 1.0 ],
					"outlettype" : [ "float", "bang" ],
					"maximum" : 1000.0,
					"fontname" : "Arial"
				}

			}
, 			{
				"box" : 				{
					"maxclass" : "comment",
					"text" : "Grain Frequency",
					"id" : "obj-20",
					"numinlets" : 1,
					"fontsize" : 9.0,
					"patching_rect" : [ 443.0, 50.0, 80.0, 17.0 ],
					"numoutlets" : 0,
					"fontname" : "Arial"
				}

			}
, 			{
				"box" : 				{
					"maxclass" : "comment",
					"text" : "Grain dur in ms",
					"id" : "obj-21",
					"numinlets" : 1,
					"fontsize" : 9.0,
					"patching_rect" : [ 544.0, 53.0, 100.0, 17.0 ],
					"numoutlets" : 0,
					"fontname" : "Arial"
				}

			}
, 			{
				"box" : 				{
					"maxclass" : "flonum",
					"htextcolor" : [ 0.870588, 0.870588, 0.870588, 1.0 ],
					"triscale" : 0.9,
					"id" : "obj-22",
					"numinlets" : 1,
					"fontsize" : 9.0,
					"patching_rect" : [ 31.0, 84.0, 76.0, 17.0 ],
					"numoutlets" : 2,
					"bgcolor" : [ 0.866667, 0.866667, 0.866667, 1.0 ],
					"outlettype" : [ "float", "bang" ],
					"fontname" : "Arial"
				}

			}
, 			{
				"box" : 				{
					"maxclass" : "flonum",
					"htextcolor" : [ 0.870588, 0.870588, 0.870588, 1.0 ],
					"triscale" : 0.9,
					"id" : "obj-23",
					"numinlets" : 1,
					"fontsize" : 9.0,
					"patching_rect" : [ 95.0, 174.0, 72.0, 17.0 ],
					"numoutlets" : 2,
					"bgcolor" : [ 0.866667, 0.866667, 0.866667, 1.0 ],
					"outlettype" : [ "float", "bang" ],
					"fontname" : "Arial"
				}

			}
, 			{
				"box" : 				{
					"maxclass" : "newobj",
					"text" : "phasor~",
					"id" : "obj-24",
					"numinlets" : 2,
					"fontsize" : 9.0,
					"patching_rect" : [ 95.0, 237.0, 44.0, 17.0 ],
					"numoutlets" : 1,
					"outlettype" : [ "signal" ],
					"fontname" : "Arial"
				}

			}
, 			{
				"box" : 				{
					"maxclass" : "outlet",
					"id" : "obj-25",
					"numinlets" : 1,
					"patching_rect" : [ 95.0, 431.0, 15.0, 15.0 ],
					"numoutlets" : 0,
					"comment" : ""
				}

			}
, 			{
				"box" : 				{
					"maxclass" : "inlet",
					"id" : "obj-26",
					"numinlets" : 0,
					"patching_rect" : [ 318.0, 69.0, 15.0, 15.0 ],
					"numoutlets" : 1,
					"outlettype" : [ "" ],
					"comment" : "Grain Pitch Factor"
				}

			}
, 			{
				"box" : 				{
					"maxclass" : "inlet",
					"id" : "obj-27",
					"numinlets" : 0,
					"patching_rect" : [ 31.0, 62.0, 15.0, 15.0 ],
					"numoutlets" : 1,
					"outlettype" : [ "" ],
					"comment" : "Grain Start Point"
				}

			}
, 			{
				"box" : 				{
					"maxclass" : "comment",
					"text" : "Grain start point in ms",
					"id" : "obj-28",
					"numinlets" : 1,
					"fontsize" : 9.0,
					"patching_rect" : [ 31.0, 47.0, 110.0, 17.0 ],
					"numoutlets" : 0,
					"fontname" : "Arial"
				}

			}
, 			{
				"box" : 				{
					"maxclass" : "comment",
					"text" : "Pitch factor",
					"id" : "obj-29",
					"numinlets" : 1,
					"fontsize" : 9.0,
					"patching_rect" : [ 305.0, 50.0, 62.0, 17.0 ],
					"numoutlets" : 0,
					"fontname" : "Arial"
				}

			}
, 			{
				"box" : 				{
					"maxclass" : "comment",
					"text" : "grain frequency",
					"linecount" : 2,
					"id" : "obj-30",
					"numinlets" : 1,
					"fontsize" : 9.0,
					"patching_rect" : [ 41.0, 174.0, 51.0, 27.0 ],
					"numoutlets" : 0,
					"fontname" : "Arial"
				}

			}
, 			{
				"box" : 				{
					"maxclass" : "comment",
					"text" : "Granular Synthesizer with independent controls for start point, rand offset %, pitch factor, rand pitch %, grain freq, and grain duration. RP",
					"id" : "obj-31",
					"numinlets" : 1,
					"fontsize" : 9.0,
					"patching_rect" : [ 18.0, 31.0, 647.0, 17.0 ],
					"numoutlets" : 0,
					"fontname" : "Arial"
				}

			}
, 			{
				"box" : 				{
					"maxclass" : "comment",
					"text" : "Rand Pitch %",
					"id" : "obj-32",
					"numinlets" : 1,
					"fontsize" : 9.0,
					"patching_rect" : [ 369.0, 50.0, 70.0, 17.0 ],
					"numoutlets" : 0,
					"fontname" : "Arial"
				}

			}
, 			{
				"box" : 				{
					"maxclass" : "comment",
					"text" : "Rand Offset %",
					"id" : "obj-33",
					"numinlets" : 1,
					"fontsize" : 9.0,
					"patching_rect" : [ 196.0, 50.0, 100.0, 17.0 ],
					"numoutlets" : 0,
					"fontname" : "Arial"
				}

			}
 ],
		"lines" : [ 			{
				"patchline" : 				{
					"source" : [ "obj-18", 0 ],
					"destination" : [ "obj-1", 1 ],
					"hidden" : 0,
					"midpoints" : [  ]
				}

			}
, 			{
				"patchline" : 				{
					"source" : [ "obj-16", 0 ],
					"destination" : [ "obj-18", 0 ],
					"hidden" : 0,
					"midpoints" : [  ]
				}

			}
, 			{
				"patchline" : 				{
					"source" : [ "obj-1", 0 ],
					"destination" : [ "obj-3", 0 ],
					"hidden" : 0,
					"midpoints" : [ 520.5, 220.0, 520.5, 220.0 ]
				}

			}
, 			{
				"patchline" : 				{
					"source" : [ "obj-19", 0 ],
					"destination" : [ "obj-1", 0 ],
					"hidden" : 0,
					"midpoints" : [ 477.5, 166.0, 520.5, 166.0 ]
				}

			}
, 			{
				"patchline" : 				{
					"source" : [ "obj-2", 0 ],
					"destination" : [ "obj-8", 1 ],
					"hidden" : 0,
					"midpoints" : [  ]
				}

			}
, 			{
				"patchline" : 				{
					"source" : [ "obj-17", 0 ],
					"destination" : [ "obj-2", 0 ],
					"hidden" : 0,
					"midpoints" : [ 477.0, 90.0, 493.5, 90.0 ]
				}

			}
, 			{
				"patchline" : 				{
					"source" : [ "obj-8", 0 ],
					"destination" : [ "obj-19", 0 ],
					"hidden" : 0,
					"midpoints" : [  ]
				}

			}
, 			{
				"patchline" : 				{
					"source" : [ "obj-17", 0 ],
					"destination" : [ "obj-8", 0 ],
					"hidden" : 0,
					"midpoints" : [  ]
				}

			}
, 			{
				"patchline" : 				{
					"source" : [ "obj-13", 0 ],
					"destination" : [ "obj-12", 0 ],
					"hidden" : 0,
					"midpoints" : [  ]
				}

			}
, 			{
				"patchline" : 				{
					"source" : [ "obj-15", 0 ],
					"destination" : [ "obj-4", 0 ],
					"hidden" : 0,
					"midpoints" : [  ]
				}

			}
, 			{
				"patchline" : 				{
					"source" : [ "obj-26", 0 ],
					"destination" : [ "obj-15", 0 ],
					"hidden" : 0,
					"midpoints" : [  ]
				}

			}
, 			{
				"patchline" : 				{
					"source" : [ "obj-7", 0 ],
					"destination" : [ "obj-14", 6 ],
					"hidden" : 0,
					"midpoints" : [ 675.0, 403.0, 317.5, 403.0 ]
				}

			}
, 			{
				"patchline" : 				{
					"source" : [ "obj-14", 1 ],
					"destination" : [ "obj-11", 0 ],
					"hidden" : 0,
					"midpoints" : [  ]
				}

			}
, 			{
				"patchline" : 				{
					"source" : [ "obj-3", 0 ],
					"destination" : [ "obj-14", 5 ],
					"hidden" : 0,
					"midpoints" : [ 520.5, 396.0, 282.0, 396.0 ]
				}

			}
, 			{
				"patchline" : 				{
					"source" : [ "obj-12", 0 ],
					"destination" : [ "obj-14", 4 ],
					"hidden" : 0,
					"midpoints" : [ 399.5, 390.0, 246.5, 390.0 ]
				}

			}
, 			{
				"patchline" : 				{
					"source" : [ "obj-10", 0 ],
					"destination" : [ "obj-9", 0 ],
					"hidden" : 0,
					"midpoints" : [  ]
				}

			}
, 			{
				"patchline" : 				{
					"source" : [ "obj-4", 0 ],
					"destination" : [ "obj-14", 3 ],
					"hidden" : 0,
					"midpoints" : [ 327.5, 383.0, 211.0, 383.0 ]
				}

			}
, 			{
				"patchline" : 				{
					"source" : [ "obj-9", 0 ],
					"destination" : [ "obj-14", 2 ],
					"hidden" : 0,
					"midpoints" : [ 231.5, 377.0, 175.5, 377.0 ]
				}

			}
, 			{
				"patchline" : 				{
					"source" : [ "obj-5", 0 ],
					"destination" : [ "obj-14", 1 ],
					"hidden" : 0,
					"midpoints" : [ 40.5, 390.0, 140.0, 390.0 ]
				}

			}
, 			{
				"patchline" : 				{
					"source" : [ "obj-14", 0 ],
					"destination" : [ "obj-25", 0 ],
					"hidden" : 0,
					"midpoints" : [  ]
				}

			}
, 			{
				"patchline" : 				{
					"source" : [ "obj-24", 0 ],
					"destination" : [ "obj-14", 0 ],
					"hidden" : 0,
					"midpoints" : [  ]
				}

			}
, 			{
				"patchline" : 				{
					"source" : [ "obj-23", 0 ],
					"destination" : [ "obj-24", 0 ],
					"hidden" : 0,
					"midpoints" : [  ]
				}

			}
, 			{
				"patchline" : 				{
					"source" : [ "obj-19", 0 ],
					"destination" : [ "obj-23", 0 ],
					"hidden" : 0,
					"midpoints" : [ 477.5, 167.0, 104.5, 167.0 ]
				}

			}
, 			{
				"patchline" : 				{
					"source" : [ "obj-22", 0 ],
					"destination" : [ "obj-5", 0 ],
					"hidden" : 0,
					"midpoints" : [  ]
				}

			}
, 			{
				"patchline" : 				{
					"source" : [ "obj-27", 0 ],
					"destination" : [ "obj-22", 0 ],
					"hidden" : 0,
					"midpoints" : [  ]
				}

			}
 ]
	}

}
