{
	"patcher" : 	{
		"fileversion" : 1,
		"rect" : [ 4.0, 50.0, 522.0, 413.0 ],
		"bglocked" : 0,
		"defrect" : [ 4.0, 50.0, 522.0, 413.0 ],
		"openrect" : [ 0.0, 0.0, 0.0, 0.0 ],
		"openinpresentation" : 0,
		"default_fontsize" : 20.0,
		"default_fontface" : 0,
		"default_fontname" : "Arial",
		"gridonopen" : 0,
		"gridsize" : [ 15.0, 15.0 ],
		"gridsnaponopen" : 0,
		"toolbarvisible" : 1,
		"boxanimatetime" : 200,
		"imprint" : 0,
		"enablehscroll" : 1,
		"enablevscroll" : 1,
		"boxes" : [ 			{
				"box" : 				{
					"maxclass" : "flonum",
					"bgcolor" : [ 0.866667, 0.866667, 0.866667, 1.0 ],
					"cantchange" : 1,
					"triscale" : 0.9,
					"id" : "obj-1",
					"numinlets" : 1,
					"triangle" : 0,
					"fontsize" : 9.0,
					"htextcolor" : [ 0.870588, 0.870588, 0.870588, 1.0 ],
					"numoutlets" : 2,
					"patching_rect" : [ 175.0, 221.0, 47.0, 17.0 ],
					"outlettype" : [ "float", "bang" ],
					"fontname" : "Arial"
				}

			}
, 			{
				"box" : 				{
					"maxclass" : "message",
					"text" : "25",
					"id" : "obj-2",
					"numinlets" : 2,
					"fontsize" : 9.0,
					"numoutlets" : 1,
					"patching_rect" : [ 463.0, 190.0, 20.0, 15.0 ],
					"outlettype" : [ "" ],
					"fontname" : "Arial",
					"hidden" : 1
				}

			}
, 			{
				"box" : 				{
					"maxclass" : "newobj",
					"text" : "loadbang",
					"id" : "obj-3",
					"numinlets" : 1,
					"fontsize" : 9.0,
					"numoutlets" : 1,
					"patching_rect" : [ 463.0, 161.0, 48.0, 17.0 ],
					"outlettype" : [ "bang" ],
					"fontname" : "Arial",
					"hidden" : 1
				}

			}
, 			{
				"box" : 				{
					"maxclass" : "outlet",
					"id" : "obj-4",
					"numinlets" : 1,
					"numoutlets" : 0,
					"patching_rect" : [ 475.0, 354.0, 15.0, 15.0 ],
					"hidden" : 1,
					"comment" : ""
				}

			}
, 			{
				"box" : 				{
					"maxclass" : "inlet",
					"id" : "obj-5",
					"numinlets" : 0,
					"numoutlets" : 1,
					"patching_rect" : [ 475.0, 33.0, 15.0, 15.0 ],
					"outlettype" : [ "" ],
					"hidden" : 1,
					"comment" : ""
				}

			}
, 			{
				"box" : 				{
					"maxclass" : "ezdac~",
					"id" : "obj-6",
					"numinlets" : 2,
					"numoutlets" : 0,
					"patching_rect" : [ 281.0, 437.0, 33.0, 33.0 ],
					"hidden" : 1
				}

			}
, 			{
				"box" : 				{
					"maxclass" : "message",
					"text" : "$1 100",
					"id" : "obj-7",
					"numinlets" : 2,
					"fontsize" : 9.0,
					"numoutlets" : 1,
					"patching_rect" : [ 299.0, 374.0, 41.0, 15.0 ],
					"outlettype" : [ "" ],
					"fontname" : "Arial",
					"hidden" : 1
				}

			}
, 			{
				"box" : 				{
					"maxclass" : "newobj",
					"text" : "line~",
					"id" : "obj-8",
					"numinlets" : 2,
					"fontsize" : 9.0,
					"numoutlets" : 2,
					"patching_rect" : [ 343.0, 374.0, 30.0, 17.0 ],
					"outlettype" : [ "signal", "bang" ],
					"fontname" : "Arial",
					"hidden" : 1
				}

			}
, 			{
				"box" : 				{
					"maxclass" : "newobj",
					"text" : "/ 100.",
					"id" : "obj-9",
					"numinlets" : 2,
					"fontsize" : 9.0,
					"numoutlets" : 1,
					"patching_rect" : [ 299.0, 352.0, 38.0, 17.0 ],
					"outlettype" : [ "float" ],
					"fontname" : "Arial",
					"hidden" : 1
				}

			}
, 			{
				"box" : 				{
					"maxclass" : "slider",
					"bgcolor" : [ 1.0, 0.890196, 0.090196, 1.0 ],
					"id" : "obj-10",
					"numinlets" : 1,
					"numoutlets" : 1,
					"patching_rect" : [ 299.0, 244.0, 28.0, 104.0 ],
					"outlettype" : [ "" ],
					"orientation" : 2
				}

			}
, 			{
				"box" : 				{
					"maxclass" : "message",
					"text" : "0",
					"id" : "obj-11",
					"numinlets" : 2,
					"fontsize" : 9.0,
					"numoutlets" : 1,
					"patching_rect" : [ 53.0, 316.0, 16.0, 15.0 ],
					"outlettype" : [ "" ],
					"fontname" : "Arial",
					"hidden" : 1
				}

			}
, 			{
				"box" : 				{
					"maxclass" : "newobj",
					"text" : "closebang",
					"id" : "obj-12",
					"numinlets" : 0,
					"fontsize" : 9.0,
					"numoutlets" : 1,
					"patching_rect" : [ 53.0, 294.0, 51.0, 17.0 ],
					"outlettype" : [ "bang" ],
					"fontname" : "Arial",
					"hidden" : 1
				}

			}
, 			{
				"box" : 				{
					"maxclass" : "toggle",
					"id" : "obj-13",
					"numinlets" : 1,
					"numoutlets" : 1,
					"patching_rect" : [ 163.0, 275.0, 51.0, 51.0 ],
					"outlettype" : [ "int" ]
				}

			}
, 			{
				"box" : 				{
					"maxclass" : "newobj",
					"text" : "sel 1",
					"id" : "obj-14",
					"numinlets" : 2,
					"fontsize" : 9.0,
					"numoutlets" : 2,
					"patching_rect" : [ 175.0, 364.0, 32.0, 17.0 ],
					"outlettype" : [ "bang", "" ],
					"fontname" : "Arial",
					"hidden" : 1
				}

			}
, 			{
				"box" : 				{
					"maxclass" : "message",
					"text" : "stop",
					"id" : "obj-15",
					"numinlets" : 2,
					"fontsize" : 9.0,
					"numoutlets" : 1,
					"patching_rect" : [ 249.0, 402.0, 27.0, 15.0 ],
					"outlettype" : [ "" ],
					"fontname" : "Arial",
					"hidden" : 1
				}

			}
, 			{
				"box" : 				{
					"maxclass" : "message",
					"text" : "startwindow",
					"id" : "obj-16",
					"numinlets" : 2,
					"fontsize" : 9.0,
					"numoutlets" : 1,
					"patching_rect" : [ 175.0, 402.0, 65.0, 15.0 ],
					"outlettype" : [ "" ],
					"fontname" : "Arial",
					"hidden" : 1
				}

			}
, 			{
				"box" : 				{
					"maxclass" : "comment",
					"text" : "click here to start/stop audio",
					"linecount" : 2,
					"id" : "obj-17",
					"numinlets" : 1,
					"fontsize" : 9.0,
					"numoutlets" : 0,
					"patching_rect" : [ 147.0, 326.0, 81.0, 27.0 ],
					"fontname" : "Arial"
				}

			}
, 			{
				"box" : 				{
					"maxclass" : "newobj",
					"text" : "*~ 0.25",
					"id" : "obj-18",
					"numinlets" : 2,
					"fontsize" : 9.0,
					"numoutlets" : 1,
					"patching_rect" : [ 298.0, 401.0, 45.0, 17.0 ],
					"outlettype" : [ "signal" ],
					"fontname" : "Arial",
					"hidden" : 1
				}

			}
, 			{
				"box" : 				{
					"maxclass" : "comment",
					"text" : "volume",
					"id" : "obj-19",
					"numinlets" : 1,
					"fontsize" : 9.0,
					"numoutlets" : 0,
					"patching_rect" : [ 329.0, 319.0, 40.0, 17.0 ],
					"fontname" : "Arial"
				}

			}
, 			{
				"box" : 				{
					"maxclass" : "panel",
					"bgcolor" : [ 1.0, 1.0, 1.0, 1.0 ],
					"id" : "obj-20",
					"border" : 2,
					"bordercolor" : [ 0.631373, 1.0, 0.419608, 1.0 ],
					"numinlets" : 1,
					"numoutlets" : 0,
					"patching_rect" : [ 142.0, 267.0, 89.0, 89.0 ],
					"rounded" : 0
				}

			}
, 			{
				"box" : 				{
					"maxclass" : "newobj",
					"text" : "sel 0",
					"id" : "obj-21",
					"numinlets" : 2,
					"fontsize" : 9.0,
					"numoutlets" : 2,
					"patching_rect" : [ 397.0, 54.0, 31.0, 17.0 ],
					"outlettype" : [ "bang", "" ],
					"fontname" : "Arial"
				}

			}
, 			{
				"box" : 				{
					"maxclass" : "message",
					"text" : "$1 500",
					"id" : "obj-22",
					"numinlets" : 2,
					"fontsize" : 9.0,
					"numoutlets" : 1,
					"patching_rect" : [ 397.0, 168.0, 42.0, 15.0 ],
					"outlettype" : [ "" ],
					"fontname" : "Arial"
				}

			}
, 			{
				"box" : 				{
					"maxclass" : "newobj",
					"text" : "line",
					"id" : "obj-23",
					"numinlets" : 3,
					"fontsize" : 9.0,
					"numoutlets" : 2,
					"patching_rect" : [ 397.0, 188.0, 40.0, 17.0 ],
					"outlettype" : [ "", "" ],
					"fontname" : "Arial"
				}

			}
, 			{
				"box" : 				{
					"maxclass" : "newobj",
					"text" : "random 40",
					"id" : "obj-24",
					"numinlets" : 2,
					"fontsize" : 9.0,
					"numoutlets" : 1,
					"patching_rect" : [ 397.0, 145.0, 55.0, 17.0 ],
					"outlettype" : [ "int" ],
					"fontname" : "Arial"
				}

			}
, 			{
				"box" : 				{
					"maxclass" : "newobj",
					"text" : "* 5",
					"id" : "obj-25",
					"numinlets" : 2,
					"fontsize" : 9.0,
					"numoutlets" : 1,
					"patching_rect" : [ 438.0, 92.0, 27.0, 17.0 ],
					"outlettype" : [ "int" ],
					"fontname" : "Arial"
				}

			}
, 			{
				"box" : 				{
					"maxclass" : "newobj",
					"text" : "metro",
					"id" : "obj-26",
					"numinlets" : 2,
					"fontsize" : 9.0,
					"numoutlets" : 1,
					"patching_rect" : [ 397.0, 122.0, 51.0, 17.0 ],
					"outlettype" : [ "bang" ],
					"fontname" : "Arial"
				}

			}
, 			{
				"box" : 				{
					"maxclass" : "toggle",
					"id" : "obj-27",
					"numinlets" : 1,
					"numoutlets" : 1,
					"patching_rect" : [ 397.0, 83.0, 31.0, 31.0 ],
					"outlettype" : [ "int" ]
				}

			}
, 			{
				"box" : 				{
					"maxclass" : "number",
					"bgcolor" : [ 0.866667, 0.866667, 0.866667, 1.0 ],
					"triscale" : 0.9,
					"id" : "obj-28",
					"numinlets" : 1,
					"fontsize" : 9.0,
					"htextcolor" : [ 0.870588, 0.870588, 0.870588, 1.0 ],
					"numoutlets" : 2,
					"patching_rect" : [ 155.0, 101.0, 56.0, 17.0 ],
					"outlettype" : [ "int", "bang" ],
					"fontname" : "Arial"
				}

			}
, 			{
				"box" : 				{
					"maxclass" : "slider",
					"bgcolor" : [ 0.611765, 0.701961, 1.0, 1.0 ],
					"id" : "obj-29",
					"numinlets" : 1,
					"numoutlets" : 1,
					"patching_rect" : [ 155.0, 74.0, 143.0, 23.0 ],
					"size" : 127.0,
					"outlettype" : [ "" ],
					"orientation" : 1,
					"mult" : 5.0,
					"min" : 50.0
				}

			}
, 			{
				"box" : 				{
					"maxclass" : "number",
					"bgcolor" : [ 0.866667, 0.866667, 0.866667, 1.0 ],
					"cantchange" : 1,
					"triscale" : 0.9,
					"id" : "obj-30",
					"numinlets" : 1,
					"triangle" : 0,
					"fontsize" : 9.0,
					"htextcolor" : [ 0.870588, 0.870588, 0.870588, 1.0 ],
					"numoutlets" : 2,
					"patching_rect" : [ 175.0, 176.0, 35.0, 17.0 ],
					"outlettype" : [ "int", "bang" ],
					"fontname" : "Arial"
				}

			}
, 			{
				"box" : 				{
					"maxclass" : "newobj",
					"text" : "+ 60",
					"id" : "obj-31",
					"numinlets" : 2,
					"fontsize" : 9.0,
					"numoutlets" : 1,
					"patching_rect" : [ 175.0, 155.0, 30.0, 17.0 ],
					"outlettype" : [ "int" ],
					"fontname" : "Arial"
				}

			}
, 			{
				"box" : 				{
					"maxclass" : "newobj",
					"text" : "random 60",
					"id" : "obj-32",
					"numinlets" : 2,
					"fontsize" : 9.0,
					"numoutlets" : 1,
					"patching_rect" : [ 175.0, 130.0, 55.0, 17.0 ],
					"outlettype" : [ "int" ],
					"fontname" : "Arial"
				}

			}
, 			{
				"box" : 				{
					"maxclass" : "flonum",
					"bgcolor" : [ 0.866667, 0.866667, 0.866667, 1.0 ],
					"triscale" : 0.9,
					"id" : "obj-33",
					"numinlets" : 1,
					"fontsize" : 9.0,
					"htextcolor" : [ 0.870588, 0.870588, 0.870588, 1.0 ],
					"numoutlets" : 2,
					"patching_rect" : [ 243.0, 221.0, 35.0, 17.0 ],
					"minimum" : 0.0,
					"outlettype" : [ "float", "bang" ],
					"maximum" : 1.0,
					"fontname" : "Arial"
				}

			}
, 			{
				"box" : 				{
					"maxclass" : "newobj",
					"text" : "mtof",
					"id" : "obj-34",
					"numinlets" : 1,
					"fontsize" : 9.0,
					"numoutlets" : 1,
					"patching_rect" : [ 175.0, 197.0, 30.0, 17.0 ],
					"outlettype" : [ "" ],
					"fontname" : "Arial"
				}

			}
, 			{
				"box" : 				{
					"maxclass" : "newobj",
					"text" : "lores~ 1000 0.97",
					"id" : "obj-35",
					"numinlets" : 3,
					"fontsize" : 9.0,
					"numoutlets" : 1,
					"patching_rect" : [ 107.0, 247.0, 146.0, 17.0 ],
					"outlettype" : [ "signal" ],
					"fontname" : "Arial"
				}

			}
, 			{
				"box" : 				{
					"maxclass" : "newobj",
					"text" : "click~",
					"id" : "obj-36",
					"numinlets" : 1,
					"fontsize" : 9.0,
					"numoutlets" : 1,
					"patching_rect" : [ 107.0, 155.0, 35.0, 17.0 ],
					"outlettype" : [ "signal" ],
					"fontname" : "Arial"
				}

			}
, 			{
				"box" : 				{
					"maxclass" : "toggle",
					"id" : "obj-37",
					"numinlets" : 1,
					"numoutlets" : 1,
					"patching_rect" : [ 107.0, 75.0, 38.0, 38.0 ],
					"outlettype" : [ "int" ]
				}

			}
, 			{
				"box" : 				{
					"maxclass" : "newobj",
					"text" : "metro 250",
					"id" : "obj-38",
					"numinlets" : 2,
					"fontsize" : 9.0,
					"numoutlets" : 1,
					"patching_rect" : [ 107.0, 128.0, 58.0, 17.0 ],
					"outlettype" : [ "bang" ],
					"fontname" : "Arial"
				}

			}
, 			{
				"box" : 				{
					"maxclass" : "comment",
					"text" : "\"Dripsody\" Patch",
					"id" : "obj-39",
					"numinlets" : 1,
					"fontsize" : 20.0,
					"numoutlets" : 0,
					"patching_rect" : [ 104.0, 10.0, 202.0, 35.0 ],
					"fontname" : "Arial Black"
				}

			}
, 			{
				"box" : 				{
					"maxclass" : "comment",
					"text" : "click to ->automate -> changes ->",
					"linecount" : 3,
					"id" : "obj-40",
					"numinlets" : 1,
					"fontsize" : 9.0,
					"numoutlets" : 0,
					"patching_rect" : [ 338.0, 81.0, 64.0, 38.0 ],
					"fontname" : "Arial"
				}

			}
, 			{
				"box" : 				{
					"maxclass" : "comment",
					"text" : "res.",
					"id" : "obj-41",
					"numinlets" : 1,
					"fontsize" : 9.0,
					"numoutlets" : 0,
					"patching_rect" : [ 245.0, 208.0, 26.0, 17.0 ],
					"fontname" : "Arial"
				}

			}
, 			{
				"box" : 				{
					"maxclass" : "comment",
					"text" : "Hz",
					"id" : "obj-42",
					"numinlets" : 1,
					"fontsize" : 9.0,
					"numoutlets" : 0,
					"patching_rect" : [ 221.0, 222.0, 19.0, 17.0 ],
					"fontname" : "Arial"
				}

			}
, 			{
				"box" : 				{
					"maxclass" : "comment",
					"text" : "click here to start/stop metronome",
					"linecount" : 3,
					"id" : "obj-43",
					"numinlets" : 1,
					"fontsize" : 9.0,
					"numoutlets" : 0,
					"patching_rect" : [ 36.0, 77.0, 62.0, 38.0 ],
					"fontname" : "Arial"
				}

			}
, 			{
				"box" : 				{
					"maxclass" : "panel",
					"bgcolor" : [ 1.0, 1.0, 1.0, 1.0 ],
					"id" : "obj-44",
					"border" : 2,
					"bordercolor" : [ 0.631373, 1.0, 0.419608, 1.0 ],
					"numinlets" : 1,
					"numoutlets" : 0,
					"patching_rect" : [ 32.0, 65.0, 119.0, 57.0 ],
					"rounded" : 0
				}

			}
, 			{
				"box" : 				{
					"maxclass" : "comment",
					"text" : "manually change metro speed",
					"id" : "obj-45",
					"numinlets" : 1,
					"fontsize" : 9.0,
					"numoutlets" : 0,
					"patching_rect" : [ 157.0, 56.0, 141.0, 17.0 ],
					"fontname" : "Arial"
				}

			}
, 			{
				"box" : 				{
					"maxclass" : "comment",
					"text" : "random changes in filter cutt-off",
					"linecount" : 2,
					"id" : "obj-46",
					"numinlets" : 1,
					"fontsize" : 9.0,
					"numoutlets" : 0,
					"patching_rect" : [ 210.0, 150.0, 88.0, 27.0 ],
					"fontname" : "Arial"
				}

			}
, 			{
				"box" : 				{
					"maxclass" : "comment",
					"text" : "random changes in rhythm of clicks",
					"linecount" : 2,
					"id" : "obj-47",
					"numinlets" : 1,
					"fontsize" : 9.0,
					"numoutlets" : 0,
					"patching_rect" : [ 307.0, 141.0, 100.0, 27.0 ],
					"fontname" : "Arial"
				}

			}
, 			{
				"box" : 				{
					"maxclass" : "panel",
					"bgcolor" : [ 1.0, 1.0, 1.0, 1.0 ],
					"id" : "obj-48",
					"border" : 2,
					"bordercolor" : [ 0.231373, 0.462745, 1.0, 1.0 ],
					"numinlets" : 1,
					"numoutlets" : 0,
					"patching_rect" : [ 329.0, 77.0, 107.0, 42.0 ],
					"rounded" : 0
				}

			}
, 			{
				"box" : 				{
					"maxclass" : "panel",
					"bgcolor" : [ 1.0, 1.0, 1.0, 1.0 ],
					"id" : "obj-49",
					"border" : 2,
					"bordercolor" : [ 0.231373, 0.462745, 1.0, 1.0 ],
					"numinlets" : 1,
					"numoutlets" : 0,
					"patching_rect" : [ 238.0, 203.0, 45.0, 38.0 ],
					"rounded" : 0
				}

			}
, 			{
				"box" : 				{
					"maxclass" : "comment",
					"text" : "OR...",
					"id" : "obj-50",
					"numinlets" : 1,
					"fontsize" : 9.0,
					"numoutlets" : 0,
					"patching_rect" : [ 338.0, 56.0, 31.0, 17.0 ],
					"fontname" : "Arial"
				}

			}
 ],
		"lines" : [ 			{
				"patchline" : 				{
					"source" : [ "obj-3", 0 ],
					"destination" : [ "obj-2", 0 ],
					"hidden" : 1,
					"midpoints" : [  ]
				}

			}
, 			{
				"patchline" : 				{
					"source" : [ "obj-25", 0 ],
					"destination" : [ "obj-26", 1 ],
					"hidden" : 0,
					"midpoints" : [  ]
				}

			}
, 			{
				"patchline" : 				{
					"source" : [ "obj-28", 0 ],
					"destination" : [ "obj-25", 0 ],
					"hidden" : 0,
					"midpoints" : [ 164.5, 118.0, 313.0, 118.0, 313.0, 74.0, 447.5, 74.0 ]
				}

			}
, 			{
				"patchline" : 				{
					"source" : [ "obj-22", 0 ],
					"destination" : [ "obj-23", 0 ],
					"hidden" : 0,
					"midpoints" : [  ]
				}

			}
, 			{
				"patchline" : 				{
					"source" : [ "obj-24", 0 ],
					"destination" : [ "obj-22", 0 ],
					"hidden" : 0,
					"midpoints" : [  ]
				}

			}
, 			{
				"patchline" : 				{
					"source" : [ "obj-26", 0 ],
					"destination" : [ "obj-24", 0 ],
					"hidden" : 0,
					"midpoints" : [  ]
				}

			}
, 			{
				"patchline" : 				{
					"source" : [ "obj-27", 0 ],
					"destination" : [ "obj-26", 0 ],
					"hidden" : 0,
					"midpoints" : [  ]
				}

			}
, 			{
				"patchline" : 				{
					"source" : [ "obj-21", 0 ],
					"destination" : [ "obj-27", 0 ],
					"hidden" : 0,
					"midpoints" : [  ]
				}

			}
, 			{
				"patchline" : 				{
					"source" : [ "obj-37", 0 ],
					"destination" : [ "obj-21", 0 ],
					"hidden" : 0,
					"midpoints" : [ 116.5, 116.0, 103.0, 116.0, 103.0, 47.0, 406.5, 47.0 ]
				}

			}
, 			{
				"patchline" : 				{
					"source" : [ "obj-7", 0 ],
					"destination" : [ "obj-8", 0 ],
					"hidden" : 1,
					"midpoints" : [ 308.5, 391.0, 341.0, 391.0, 341.0, 371.0, 352.5, 371.0 ]
				}

			}
, 			{
				"patchline" : 				{
					"source" : [ "obj-8", 0 ],
					"destination" : [ "obj-18", 1 ],
					"hidden" : 1,
					"midpoints" : [  ]
				}

			}
, 			{
				"patchline" : 				{
					"source" : [ "obj-18", 0 ],
					"destination" : [ "obj-6", 1 ],
					"hidden" : 1,
					"midpoints" : [  ]
				}

			}
, 			{
				"patchline" : 				{
					"source" : [ "obj-9", 0 ],
					"destination" : [ "obj-7", 0 ],
					"hidden" : 1,
					"midpoints" : [  ]
				}

			}
, 			{
				"patchline" : 				{
					"source" : [ "obj-10", 0 ],
					"destination" : [ "obj-9", 0 ],
					"hidden" : 1,
					"midpoints" : [  ]
				}

			}
, 			{
				"patchline" : 				{
					"source" : [ "obj-2", 0 ],
					"destination" : [ "obj-10", 0 ],
					"hidden" : 1,
					"midpoints" : [ 472.5, 211.0, 308.5, 211.0 ]
				}

			}
, 			{
				"patchline" : 				{
					"source" : [ "obj-35", 0 ],
					"destination" : [ "obj-18", 0 ],
					"hidden" : 1,
					"midpoints" : [ 116.5, 394.0, 307.5, 394.0 ]
				}

			}
, 			{
				"patchline" : 				{
					"source" : [ "obj-16", 0 ],
					"destination" : [ "obj-6", 0 ],
					"hidden" : 1,
					"midpoints" : [  ]
				}

			}
, 			{
				"patchline" : 				{
					"source" : [ "obj-15", 0 ],
					"destination" : [ "obj-6", 0 ],
					"hidden" : 1,
					"midpoints" : [  ]
				}

			}
, 			{
				"patchline" : 				{
					"source" : [ "obj-18", 0 ],
					"destination" : [ "obj-6", 0 ],
					"hidden" : 1,
					"midpoints" : [  ]
				}

			}
, 			{
				"patchline" : 				{
					"source" : [ "obj-14", 1 ],
					"destination" : [ "obj-15", 0 ],
					"hidden" : 1,
					"midpoints" : [  ]
				}

			}
, 			{
				"patchline" : 				{
					"source" : [ "obj-33", 0 ],
					"destination" : [ "obj-35", 2 ],
					"hidden" : 0,
					"midpoints" : [  ]
				}

			}
, 			{
				"patchline" : 				{
					"source" : [ "obj-14", 0 ],
					"destination" : [ "obj-16", 0 ],
					"hidden" : 1,
					"midpoints" : [  ]
				}

			}
, 			{
				"patchline" : 				{
					"source" : [ "obj-13", 0 ],
					"destination" : [ "obj-14", 0 ],
					"hidden" : 1,
					"midpoints" : [ 172.5, 353.0, 184.5, 353.0 ]
				}

			}
, 			{
				"patchline" : 				{
					"source" : [ "obj-1", 0 ],
					"destination" : [ "obj-35", 1 ],
					"hidden" : 0,
					"midpoints" : [  ]
				}

			}
, 			{
				"patchline" : 				{
					"source" : [ "obj-34", 0 ],
					"destination" : [ "obj-1", 0 ],
					"hidden" : 0,
					"midpoints" : [  ]
				}

			}
, 			{
				"patchline" : 				{
					"source" : [ "obj-30", 0 ],
					"destination" : [ "obj-34", 0 ],
					"hidden" : 0,
					"midpoints" : [  ]
				}

			}
, 			{
				"patchline" : 				{
					"source" : [ "obj-31", 0 ],
					"destination" : [ "obj-30", 0 ],
					"hidden" : 0,
					"midpoints" : [  ]
				}

			}
, 			{
				"patchline" : 				{
					"source" : [ "obj-32", 0 ],
					"destination" : [ "obj-31", 0 ],
					"hidden" : 0,
					"midpoints" : [  ]
				}

			}
, 			{
				"patchline" : 				{
					"source" : [ "obj-38", 0 ],
					"destination" : [ "obj-32", 0 ],
					"hidden" : 0,
					"midpoints" : [ 116.5, 149.0, 167.0, 149.0, 167.0, 124.0, 184.5, 124.0 ]
				}

			}
, 			{
				"patchline" : 				{
					"source" : [ "obj-11", 0 ],
					"destination" : [ "obj-13", 0 ],
					"hidden" : 1,
					"midpoints" : [  ]
				}

			}
, 			{
				"patchline" : 				{
					"source" : [ "obj-37", 0 ],
					"destination" : [ "obj-13", 0 ],
					"hidden" : 0,
					"midpoints" : [ 116.5, 116.0, 103.0, 116.0, 103.0, 271.0, 172.5, 271.0 ]
				}

			}
, 			{
				"patchline" : 				{
					"source" : [ "obj-28", 0 ],
					"destination" : [ "obj-38", 1 ],
					"hidden" : 0,
					"midpoints" : [  ]
				}

			}
, 			{
				"patchline" : 				{
					"source" : [ "obj-29", 0 ],
					"destination" : [ "obj-28", 0 ],
					"hidden" : 0,
					"midpoints" : [  ]
				}

			}
, 			{
				"patchline" : 				{
					"source" : [ "obj-23", 0 ],
					"destination" : [ "obj-29", 0 ],
					"hidden" : 0,
					"midpoints" : [ 406.5, 207.0, 304.0, 207.0, 304.0, 70.0, 164.5, 70.0 ]
				}

			}
, 			{
				"patchline" : 				{
					"source" : [ "obj-36", 0 ],
					"destination" : [ "obj-35", 0 ],
					"hidden" : 0,
					"midpoints" : [  ]
				}

			}
, 			{
				"patchline" : 				{
					"source" : [ "obj-38", 0 ],
					"destination" : [ "obj-36", 0 ],
					"hidden" : 0,
					"midpoints" : [  ]
				}

			}
, 			{
				"patchline" : 				{
					"source" : [ "obj-37", 0 ],
					"destination" : [ "obj-38", 0 ],
					"hidden" : 0,
					"midpoints" : [  ]
				}

			}
, 			{
				"patchline" : 				{
					"source" : [ "obj-12", 0 ],
					"destination" : [ "obj-11", 0 ],
					"hidden" : 1,
					"midpoints" : [  ]
				}

			}
 ]
	}

}
