{
	"patcher" : 	{
		"fileversion" : 1,
		"rect" : [ 121.0, 67.0, 637.0, 543.0 ],
		"bglocked" : 0,
		"defrect" : [ 121.0, 67.0, 637.0, 543.0 ],
		"openrect" : [ 0.0, 0.0, 0.0, 0.0 ],
		"openinpresentation" : 0,
		"default_fontsize" : 12.0,
		"default_fontface" : 0,
		"default_fontname" : "Arial",
		"gridonopen" : 0,
		"gridsize" : [ 15.0, 15.0 ],
		"gridsnaponopen" : 0,
		"toolbarvisible" : 1,
		"boxanimatetime" : 200,
		"imprint" : 0,
		"enablehscroll" : 1,
		"enablevscroll" : 1,
		"boxes" : [ 			{
				"box" : 				{
					"maxclass" : "newobj",
					"text" : "clip~ 0. 1.",
					"outlettype" : [ "signal" ],
					"patching_rect" : [ 289.0, 320.0, 49.0, 17.0 ],
					"fontname" : "Arial",
					"id" : "obj-15",
					"numinlets" : 3,
					"numoutlets" : 1,
					"fontsize" : 9.0
				}

			}
, 			{
				"box" : 				{
					"maxclass" : "flonum",
					"outlettype" : [ "float", "bang" ],
					"triscale" : 0.9,
					"patching_rect" : [ 178.0, 319.0, 97.0, 17.0 ],
					"htextcolor" : [ 0.870588, 0.870588, 0.870588, 1.0 ],
					"fontname" : "Arial",
					"bgcolor" : [ 0.866667, 0.866667, 0.866667, 1.0 ],
					"id" : "obj-1",
					"numinlets" : 1,
					"numoutlets" : 2,
					"fontsize" : 9.0
				}

			}
, 			{
				"box" : 				{
					"maxclass" : "newobj",
					"text" : "pong~ 0. 0. 1.",
					"outlettype" : [ "signal" ],
					"patching_rect" : [ 141.0, 360.0, 75.0, 17.0 ],
					"fontname" : "Arial",
					"id" : "obj-2",
					"numinlets" : 3,
					"numoutlets" : 1,
					"fontsize" : 9.0
				}

			}
, 			{
				"box" : 				{
					"maxclass" : "newobj",
					"text" : "sah~ 0.001",
					"outlettype" : [ "signal" ],
					"patching_rect" : [ 215.0, 140.0, 59.0, 17.0 ],
					"fontname" : "Arial",
					"id" : "obj-3",
					"numinlets" : 2,
					"numoutlets" : 1,
					"fontsize" : 9.0
				}

			}
, 			{
				"box" : 				{
					"maxclass" : "newobj",
					"text" : "sig~",
					"outlettype" : [ "signal" ],
					"patching_rect" : [ 215.0, 87.0, 27.0, 17.0 ],
					"fontname" : "Arial",
					"id" : "obj-4",
					"numinlets" : 1,
					"numoutlets" : 1,
					"fontsize" : 9.0
				}

			}
, 			{
				"box" : 				{
					"maxclass" : "newobj",
					"text" : "sah~ 0.001",
					"outlettype" : [ "signal" ],
					"patching_rect" : [ 158.0, 189.0, 59.0, 17.0 ],
					"fontname" : "Arial",
					"id" : "obj-5",
					"numinlets" : 2,
					"numoutlets" : 1,
					"fontsize" : 9.0
				}

			}
, 			{
				"box" : 				{
					"maxclass" : "newobj",
					"text" : "sig~",
					"outlettype" : [ "signal" ],
					"patching_rect" : [ 383.0, 85.0, 27.0, 17.0 ],
					"fontname" : "Arial",
					"id" : "obj-6",
					"numinlets" : 1,
					"numoutlets" : 1,
					"fontsize" : 9.0
				}

			}
, 			{
				"box" : 				{
					"maxclass" : "newobj",
					"text" : "r buffsize",
					"outlettype" : [ "" ],
					"patching_rect" : [ 178.0, 295.0, 52.0, 17.0 ],
					"fontname" : "Arial",
					"id" : "obj-7",
					"numinlets" : 0,
					"numoutlets" : 1,
					"fontsize" : 9.0
				}

			}
, 			{
				"box" : 				{
					"maxclass" : "newobj",
					"text" : "+~",
					"outlettype" : [ "signal" ],
					"patching_rect" : [ 78.0, 170.0, 27.0, 17.0 ],
					"fontname" : "Arial",
					"id" : "obj-8",
					"numinlets" : 2,
					"numoutlets" : 1,
					"fontsize" : 9.0
				}

			}
, 			{
				"box" : 				{
					"maxclass" : "newobj",
					"text" : "*~",
					"outlettype" : [ "signal" ],
					"patching_rect" : [ 230.0, 222.0, 27.0, 17.0 ],
					"fontname" : "Arial",
					"id" : "obj-9",
					"numinlets" : 2,
					"numoutlets" : 1,
					"fontsize" : 9.0
				}

			}
, 			{
				"box" : 				{
					"maxclass" : "newobj",
					"text" : "sah~ 0.001",
					"outlettype" : [ "signal" ],
					"patching_rect" : [ 312.0, 139.0, 59.0, 17.0 ],
					"fontname" : "Arial",
					"id" : "obj-10",
					"numinlets" : 2,
					"numoutlets" : 1,
					"fontsize" : 9.0
				}

			}
, 			{
				"box" : 				{
					"maxclass" : "newobj",
					"text" : "phwrap~ #3",
					"outlettype" : [ "signal" ],
					"patching_rect" : [ 6.0, 97.0, 63.0, 17.0 ],
					"fontname" : "Arial",
					"id" : "obj-11",
					"numinlets" : 2,
					"numoutlets" : 1,
					"fontsize" : 9.0
				}

			}
, 			{
				"box" : 				{
					"maxclass" : "inlet",
					"outlettype" : [ "" ],
					"patching_rect" : [ 438.0, 58.0, 15.0, 15.0 ],
					"id" : "obj-12",
					"numinlets" : 0,
					"numoutlets" : 1,
					"comment" : "Grain Env Dur Factor"
				}

			}
, 			{
				"box" : 				{
					"maxclass" : "newobj",
					"text" : "*~",
					"outlettype" : [ "signal" ],
					"patching_rect" : [ 141.0, 257.0, 27.0, 17.0 ],
					"fontname" : "Arial",
					"id" : "obj-13",
					"numinlets" : 2,
					"numoutlets" : 1,
					"fontsize" : 9.0
				}

			}
, 			{
				"box" : 				{
					"maxclass" : "newobj",
					"text" : "*~",
					"outlettype" : [ "signal" ],
					"patching_rect" : [ 289.0, 283.0, 27.0, 17.0 ],
					"fontname" : "Arial",
					"id" : "obj-14",
					"numinlets" : 2,
					"numoutlets" : 1,
					"fontsize" : 9.0
				}

			}
, 			{
				"box" : 				{
					"maxclass" : "newobj",
					"text" : "cycle~ #2",
					"outlettype" : [ "signal" ],
					"patching_rect" : [ 246.0, 386.0, 101.0, 17.0 ],
					"fontname" : "Arial",
					"id" : "obj-17",
					"numinlets" : 2,
					"numoutlets" : 1,
					"fontsize" : 9.0
				}

			}
, 			{
				"box" : 				{
					"maxclass" : "newobj",
					"text" : "*~",
					"outlettype" : [ "signal" ],
					"patching_rect" : [ 141.0, 222.0, 27.0, 17.0 ],
					"fontname" : "Arial",
					"id" : "obj-18",
					"numinlets" : 2,
					"numoutlets" : 1,
					"fontsize" : 9.0
				}

			}
, 			{
				"box" : 				{
					"maxclass" : "newobj",
					"text" : "sig~",
					"outlettype" : [ "signal" ],
					"patching_rect" : [ 78.0, 97.0, 27.0, 17.0 ],
					"fontname" : "Arial",
					"id" : "obj-19",
					"numinlets" : 1,
					"numoutlets" : 1,
					"fontsize" : 9.0
				}

			}
, 			{
				"box" : 				{
					"maxclass" : "comment",
					"text" : "grain start point",
					"patching_rect" : [ 33.0, 319.0, 100.0, 17.0 ],
					"fontname" : "Arial",
					"id" : "obj-20",
					"numinlets" : 1,
					"numoutlets" : 0,
					"fontsize" : 9.0
				}

			}
, 			{
				"box" : 				{
					"maxclass" : "newobj",
					"text" : "sah~ 0.001",
					"outlettype" : [ "signal" ],
					"patching_rect" : [ 7.0, 243.0, 59.0, 17.0 ],
					"fontname" : "Arial",
					"id" : "obj-21",
					"numinlets" : 2,
					"numoutlets" : 1,
					"fontsize" : 9.0
				}

			}
, 			{
				"box" : 				{
					"maxclass" : "newobj",
					"text" : "*~ 1.",
					"outlettype" : [ "signal" ],
					"patching_rect" : [ 141.0, 411.0, 33.0, 17.0 ],
					"fontname" : "Arial",
					"id" : "obj-22",
					"numinlets" : 2,
					"numoutlets" : 1,
					"fontsize" : 9.0
				}

			}
, 			{
				"box" : 				{
					"maxclass" : "newobj",
					"text" : "+~",
					"outlettype" : [ "signal" ],
					"patching_rect" : [ 141.0, 318.0, 27.0, 17.0 ],
					"fontname" : "Arial",
					"id" : "obj-23",
					"numinlets" : 2,
					"numoutlets" : 1,
					"fontsize" : 9.0
				}

			}
, 			{
				"box" : 				{
					"maxclass" : "newobj",
					"text" : "play~ #1",
					"outlettype" : [ "signal" ],
					"patching_rect" : [ 141.0, 386.0, 84.0, 17.0 ],
					"fontname" : "Arial",
					"id" : "obj-24",
					"numinlets" : 1,
					"numoutlets" : 1,
					"fontsize" : 9.0
				}

			}
, 			{
				"box" : 				{
					"maxclass" : "outlet",
					"patching_rect" : [ 141.0, 451.0, 15.0, 15.0 ],
					"id" : "obj-25",
					"numinlets" : 1,
					"numoutlets" : 0,
					"comment" : ""
				}

			}
, 			{
				"box" : 				{
					"maxclass" : "comment",
					"text" : "Pitch factor",
					"linecount" : 2,
					"patching_rect" : [ 171.0, 259.0, 37.0, 27.0 ],
					"fontname" : "Arial",
					"id" : "obj-26",
					"numinlets" : 1,
					"numoutlets" : 0,
					"fontsize" : 9.0
				}

			}
, 			{
				"box" : 				{
					"maxclass" : "comment",
					"text" : "grain envelope generator",
					"patching_rect" : [ 352.0, 388.0, 140.0, 17.0 ],
					"fontname" : "Arial",
					"id" : "obj-27",
					"numinlets" : 1,
					"numoutlets" : 0,
					"fontsize" : 9.0
				}

			}
, 			{
				"box" : 				{
					"maxclass" : "comment",
					"text" : "grain period in ms",
					"linecount" : 3,
					"patching_rect" : [ 170.0, 213.0, 36.0, 38.0 ],
					"fontname" : "Arial",
					"id" : "obj-28",
					"numinlets" : 1,
					"numoutlets" : 0,
					"fontsize" : 9.0
				}

			}
, 			{
				"box" : 				{
					"maxclass" : "inlet",
					"outlettype" : [ "" ],
					"patching_rect" : [ 312.0, 58.0, 15.0, 15.0 ],
					"id" : "obj-29",
					"numinlets" : 0,
					"numoutlets" : 1,
					"comment" : "rand pitch factor (sig)"
				}

			}
, 			{
				"box" : 				{
					"maxclass" : "inlet",
					"outlettype" : [ "" ],
					"patching_rect" : [ 134.0, 59.0, 15.0, 15.0 ],
					"id" : "obj-30",
					"numinlets" : 0,
					"numoutlets" : 1,
					"comment" : "rand offset factor (sig)"
				}

			}
, 			{
				"box" : 				{
					"maxclass" : "inlet",
					"outlettype" : [ "" ],
					"patching_rect" : [ 383.0, 59.0, 15.0, 15.0 ],
					"id" : "obj-31",
					"numinlets" : 0,
					"numoutlets" : 1,
					"comment" : "grain dur in ms"
				}

			}
, 			{
				"box" : 				{
					"maxclass" : "inlet",
					"outlettype" : [ "" ],
					"patching_rect" : [ 215.0, 58.0, 15.0, 15.0 ],
					"id" : "obj-32",
					"numinlets" : 0,
					"numoutlets" : 1,
					"comment" : "pitch fact"
				}

			}
, 			{
				"box" : 				{
					"maxclass" : "inlet",
					"outlettype" : [ "" ],
					"patching_rect" : [ 78.0, 57.0, 15.0, 15.0 ],
					"id" : "obj-33",
					"numinlets" : 0,
					"numoutlets" : 1,
					"comment" : "grain pointer"
				}

			}
, 			{
				"box" : 				{
					"maxclass" : "inlet",
					"outlettype" : [ "" ],
					"patching_rect" : [ 6.0, 58.0, 15.0, 15.0 ],
					"id" : "obj-34",
					"numinlets" : 0,
					"numoutlets" : 1,
					"comment" : "phasor input sig (0-1)"
				}

			}
, 			{
				"box" : 				{
					"maxclass" : "comment",
					"text" : "input phasor signal",
					"linecount" : 2,
					"patching_rect" : [ 0.0, 27.0, 62.0, 27.0 ],
					"fontname" : "Arial",
					"id" : "obj-35",
					"numinlets" : 1,
					"numoutlets" : 0,
					"fontsize" : 9.0
				}

			}
, 			{
				"box" : 				{
					"maxclass" : "comment",
					"text" : "buffer offset",
					"linecount" : 2,
					"patching_rect" : [ 67.0, 28.0, 37.0, 27.0 ],
					"fontname" : "Arial",
					"id" : "obj-36",
					"numinlets" : 1,
					"numoutlets" : 0,
					"fontsize" : 9.0
				}

			}
, 			{
				"box" : 				{
					"maxclass" : "comment",
					"text" : "max rand offset (sig)",
					"linecount" : 2,
					"patching_rect" : [ 118.0, 28.0, 61.0, 27.0 ],
					"fontname" : "Arial",
					"id" : "obj-37",
					"numinlets" : 1,
					"numoutlets" : 0,
					"fontsize" : 9.0
				}

			}
, 			{
				"box" : 				{
					"maxclass" : "comment",
					"text" : "pitch fact",
					"linecount" : 2,
					"patching_rect" : [ 212.0, 26.0, 31.0, 27.0 ],
					"fontname" : "Arial",
					"id" : "obj-38",
					"numinlets" : 1,
					"numoutlets" : 0,
					"fontsize" : 9.0
				}

			}
, 			{
				"box" : 				{
					"maxclass" : "comment",
					"text" : "rand pitch factor (sig)",
					"linecount" : 2,
					"patching_rect" : [ 294.0, 28.0, 57.0, 27.0 ],
					"fontname" : "Arial",
					"id" : "obj-39",
					"numinlets" : 1,
					"numoutlets" : 0,
					"fontsize" : 9.0
				}

			}
, 			{
				"box" : 				{
					"maxclass" : "comment",
					"text" : "grain dur in ms",
					"linecount" : 2,
					"patching_rect" : [ 378.0, 29.0, 49.0, 27.0 ],
					"fontname" : "Arial",
					"id" : "obj-40",
					"numinlets" : 1,
					"numoutlets" : 0,
					"fontsize" : 9.0
				}

			}
, 			{
				"box" : 				{
					"maxclass" : "comment",
					"text" : "grain dur factor",
					"linecount" : 2,
					"patching_rect" : [ 435.0, 29.0, 50.0, 27.0 ],
					"fontname" : "Arial",
					"id" : "obj-41",
					"numinlets" : 1,
					"numoutlets" : 0,
					"fontsize" : 9.0
				}

			}
, 			{
				"box" : 				{
					"maxclass" : "comment",
					"text" : "Grain generator with random pitch and offset factors. Requires args 1 & 2 (sample buffer name and grain window function name). Optional 3rd arg is a phase offset (0-1). RP",
					"linecount" : 10,
					"patching_rect" : [ 455.0, 136.0, 96.0, 110.0 ],
					"fontname" : "Arial",
					"id" : "obj-42",
					"numinlets" : 1,
					"numoutlets" : 0,
					"fontsize" : 9.0
				}

			}
 ],
		"lines" : [ 			{
				"patchline" : 				{
					"source" : [ "obj-15", 0 ],
					"destination" : [ "obj-17", 1 ],
					"hidden" : 0,
					"midpoints" : [ 298.5, 373.0, 337.5, 373.0 ]
				}

			}
, 			{
				"patchline" : 				{
					"source" : [ "obj-14", 0 ],
					"destination" : [ "obj-15", 0 ],
					"hidden" : 0,
					"midpoints" : [  ]
				}

			}
, 			{
				"patchline" : 				{
					"source" : [ "obj-34", 0 ],
					"destination" : [ "obj-11", 0 ],
					"hidden" : 0,
					"midpoints" : [  ]
				}

			}
, 			{
				"patchline" : 				{
					"source" : [ "obj-8", 0 ],
					"destination" : [ "obj-21", 0 ],
					"hidden" : 0,
					"midpoints" : [ 87.5, 234.0, 16.5, 234.0 ]
				}

			}
, 			{
				"patchline" : 				{
					"source" : [ "obj-11", 0 ],
					"destination" : [ "obj-21", 1 ],
					"hidden" : 0,
					"midpoints" : [ 15.5, 227.0, 56.5, 227.0 ]
				}

			}
, 			{
				"patchline" : 				{
					"source" : [ "obj-33", 0 ],
					"destination" : [ "obj-19", 0 ],
					"hidden" : 0,
					"midpoints" : [  ]
				}

			}
, 			{
				"patchline" : 				{
					"source" : [ "obj-19", 0 ],
					"destination" : [ "obj-8", 0 ],
					"hidden" : 0,
					"midpoints" : [  ]
				}

			}
, 			{
				"patchline" : 				{
					"source" : [ "obj-30", 0 ],
					"destination" : [ "obj-8", 1 ],
					"hidden" : 0,
					"midpoints" : [ 143.0, 157.0, 95.5, 157.0 ]
				}

			}
, 			{
				"patchline" : 				{
					"source" : [ "obj-11", 0 ],
					"destination" : [ "obj-18", 0 ],
					"hidden" : 0,
					"midpoints" : [ 15.5, 129.0, 150.5, 129.0 ]
				}

			}
, 			{
				"patchline" : 				{
					"source" : [ "obj-18", 0 ],
					"destination" : [ "obj-13", 0 ],
					"hidden" : 0,
					"midpoints" : [  ]
				}

			}
, 			{
				"patchline" : 				{
					"source" : [ "obj-13", 0 ],
					"destination" : [ "obj-23", 0 ],
					"hidden" : 0,
					"midpoints" : [  ]
				}

			}
, 			{
				"patchline" : 				{
					"source" : [ "obj-23", 0 ],
					"destination" : [ "obj-2", 0 ],
					"hidden" : 0,
					"midpoints" : [  ]
				}

			}
, 			{
				"patchline" : 				{
					"source" : [ "obj-2", 0 ],
					"destination" : [ "obj-24", 0 ],
					"hidden" : 0,
					"midpoints" : [  ]
				}

			}
, 			{
				"patchline" : 				{
					"source" : [ "obj-24", 0 ],
					"destination" : [ "obj-22", 0 ],
					"hidden" : 0,
					"midpoints" : [  ]
				}

			}
, 			{
				"patchline" : 				{
					"source" : [ "obj-22", 0 ],
					"destination" : [ "obj-25", 0 ],
					"hidden" : 0,
					"midpoints" : [  ]
				}

			}
, 			{
				"patchline" : 				{
					"source" : [ "obj-6", 0 ],
					"destination" : [ "obj-5", 0 ],
					"hidden" : 0,
					"midpoints" : [ 392.5, 111.0, 167.5, 111.0 ]
				}

			}
, 			{
				"patchline" : 				{
					"source" : [ "obj-5", 0 ],
					"destination" : [ "obj-18", 1 ],
					"hidden" : 0,
					"midpoints" : [  ]
				}

			}
, 			{
				"patchline" : 				{
					"source" : [ "obj-9", 0 ],
					"destination" : [ "obj-13", 1 ],
					"hidden" : 0,
					"midpoints" : [ 239.5, 253.0, 158.5, 253.0 ]
				}

			}
, 			{
				"patchline" : 				{
					"source" : [ "obj-21", 0 ],
					"destination" : [ "obj-23", 1 ],
					"hidden" : 0,
					"midpoints" : [ 16.5, 300.0, 158.5, 300.0 ]
				}

			}
, 			{
				"patchline" : 				{
					"source" : [ "obj-17", 0 ],
					"destination" : [ "obj-22", 1 ],
					"hidden" : 0,
					"midpoints" : [ 255.5, 407.0, 164.5, 407.0 ]
				}

			}
, 			{
				"patchline" : 				{
					"source" : [ "obj-7", 0 ],
					"destination" : [ "obj-1", 0 ],
					"hidden" : 0,
					"midpoints" : [  ]
				}

			}
, 			{
				"patchline" : 				{
					"source" : [ "obj-1", 0 ],
					"destination" : [ "obj-2", 2 ],
					"hidden" : 0,
					"midpoints" : [ 187.5, 342.0, 206.5, 342.0 ]
				}

			}
, 			{
				"patchline" : 				{
					"source" : [ "obj-11", 0 ],
					"destination" : [ "obj-5", 1 ],
					"hidden" : 0,
					"midpoints" : [ 15.5, 129.0, 207.5, 129.0 ]
				}

			}
, 			{
				"patchline" : 				{
					"source" : [ "obj-32", 0 ],
					"destination" : [ "obj-4", 0 ],
					"hidden" : 0,
					"midpoints" : [  ]
				}

			}
, 			{
				"patchline" : 				{
					"source" : [ "obj-4", 0 ],
					"destination" : [ "obj-3", 0 ],
					"hidden" : 0,
					"midpoints" : [  ]
				}

			}
, 			{
				"patchline" : 				{
					"source" : [ "obj-10", 0 ],
					"destination" : [ "obj-9", 0 ],
					"hidden" : 0,
					"midpoints" : [ 321.5, 167.0, 239.5, 167.0 ]
				}

			}
, 			{
				"patchline" : 				{
					"source" : [ "obj-3", 0 ],
					"destination" : [ "obj-9", 1 ],
					"hidden" : 0,
					"midpoints" : [ 224.5, 161.0, 247.5, 161.0 ]
				}

			}
, 			{
				"patchline" : 				{
					"source" : [ "obj-11", 0 ],
					"destination" : [ "obj-3", 1 ],
					"hidden" : 0,
					"midpoints" : [ 15.5, 129.0, 264.5, 129.0 ]
				}

			}
, 			{
				"patchline" : 				{
					"source" : [ "obj-11", 0 ],
					"destination" : [ "obj-14", 0 ],
					"hidden" : 0,
					"midpoints" : [ 15.5, 129.0, 298.5, 129.0 ]
				}

			}
, 			{
				"patchline" : 				{
					"source" : [ "obj-12", 0 ],
					"destination" : [ "obj-14", 1 ],
					"hidden" : 0,
					"midpoints" : [ 447.0, 278.0, 306.5, 278.0 ]
				}

			}
, 			{
				"patchline" : 				{
					"source" : [ "obj-29", 0 ],
					"destination" : [ "obj-10", 0 ],
					"hidden" : 0,
					"midpoints" : [  ]
				}

			}
, 			{
				"patchline" : 				{
					"source" : [ "obj-11", 0 ],
					"destination" : [ "obj-10", 1 ],
					"hidden" : 0,
					"midpoints" : [ 15.5, 129.0, 361.5, 129.0 ]
				}

			}
, 			{
				"patchline" : 				{
					"source" : [ "obj-31", 0 ],
					"destination" : [ "obj-6", 0 ],
					"hidden" : 0,
					"midpoints" : [  ]
				}

			}
 ]
	}

}
