#N canvas 8 22 471 300 10;
#N canvas 374 204 903 324 serial_port 0;
#X msg 190 178 close;
#X obj 190 200 comport 4 9600;
#X obj 190 156 loadbang;
#X obj 190 222 print Arduino_Says:;
#X obj 231 178 r to_serial;
#X obj 102 102 tgl 14 0 empty empty open_serial_port 17 6 0 10 -262144
-1 -1 1 1;
#X msg 142 222 set 1;
#X msg 102 222 set 0;
#X obj 142 141 sel 1 0;
#X text 284 199 creation arguments: <port#> <BAUD>;
#X text 312 221 if you gave the arduino something to say it appears
in the console;
#X text 304 178 send things to the serial port via "to_serial" send
symbol;
#X msg 142 178 open 2;
#X connect 0 0 1 0;
#X connect 0 0 7 0;
#X connect 1 0 3 0;
#X connect 2 0 0 0;
#X connect 4 0 1 0;
#X connect 5 0 8 0;
#X connect 6 0 5 0;
#X connect 7 0 5 0;
#X connect 8 0 12 0;
#X connect 8 1 0 0;
#X connect 12 0 1 0;
#X connect 12 0 6 0;
#X coords 0 -1 1 1 120 18 2 100 100;
#X restore -55 -65 pd serial_port;
#X obj -54 -19 s to_serial;
#X obj -54 -2 r to_serial;
#X floatatom -54 18 5 0 0 0 - - -;
#X obj -55 122 random 16;
#X obj -55 103 metro 1000;
#X obj 5 85 hsl 128 15 30 1000 0 1 empty empty tempo 0 7 0 10 -262144
-1 -1 900 1;
#X obj -55 85 tgl 15 0 empty empty on/off 17 7 0 10 -262144 -1 -1 1
1;
#X floatatom -17 141 5 0 0 0 - - -;
#X floatatom -54 -41 5 0 15 0 - - -;
#X obj -55 159 s to_serial;
#X text 70 -64 Activate toggle to enable serial connection to Arduino
;
#X text 27 -40 Change this number object to send values directly to
the Arduino;
#X text -58 64 An example showing how to send random values to the
Arduino;
#X connect 2 0 3 0;
#X connect 4 0 8 0;
#X connect 4 0 10 0;
#X connect 5 0 4 0;
#X connect 6 0 5 1;
#X connect 7 0 5 0;
#X connect 9 0 1 0;
