#N canvas 0 22 1350 709 10;
#X obj 101 101 cnv 15 312 301 empty empty empty 20 12 0 14 -261682
-66577 0;
#X obj 136 103 vradio 15 1 0 3 empty empty DIR -20 40 0 10 -262144
-1 -1 0;
#X obj 103 103 tgl 30 0 empty empty RUN 2 10 0 10 -262144 -1 -1 0 1
;
#X obj -3 277 counter 15;
#X obj 118 497 sel 0 1 2 3 4 5 6 7 8 9 10 11 12 13 14 15;
#X obj 171 103 vradio 15 1 0 16 empty empty empty 0 -8 0 10 -262144
-1 -1 0;
#X obj 171 348 hradio 15 1 0 16 s_current GUI POS -20 8 0 10 -262144
-1 -1 10;
#X obj 6 321 s GUI;
#X msg 6 301 set \$1;
#X obj 118 535 i;
#X obj 186 103 vradio 15 1 0 16 empty empty empty 0 -8 0 10 -262144
-1 -1 1;
#X obj 142 535 i;
#X obj 201 103 vradio 15 1 0 16 empty empty empty 0 -8 0 10 -262144
-1 -1 2;
#X obj 166 535 i;
#X obj 216 103 vradio 15 1 0 16 empty empty empty 0 -8 0 10 -262144
-1 -1 3;
#X obj 190 535 i;
#X obj 231 103 vradio 15 1 0 16 empty empty empty 0 -8 0 10 -262144
-1 -1 4;
#X obj 214 535 i;
#X obj 246 103 vradio 15 1 0 16 empty empty empty 0 -8 0 10 -262144
-1 -1 5;
#X obj 238 535 i;
#X obj 261 103 vradio 15 1 0 16 empty empty empty 0 -8 0 10 -262144
-1 -1 6;
#X obj 262 535 i;
#X obj 276 103 vradio 15 1 0 16 empty empty empty 0 -8 0 10 -262144
-1 -1 7;
#X obj 286 535 i;
#X obj 291 103 vradio 15 1 0 16 empty empty empty 0 -8 0 10 -262144
-1 -1 8;
#X obj 310 535 i;
#X obj 306 103 vradio 15 1 0 16 empty empty empty 0 -8 0 10 -262144
-1 -1 9;
#X obj 334 535 i;
#X obj 321 103 vradio 15 1 0 16 empty empty empty 0 -8 0 10 -262144
-1 -1 10;
#X obj 358 535 i;
#X obj 336 103 vradio 15 1 0 16 empty empty empty 0 -8 0 10 -262144
-1 -1 11;
#X obj 382 535 i;
#X obj 351 103 vradio 15 1 0 16 empty empty empty 0 -8 0 10 -262144
-1 -1 12;
#X obj 406 535 i;
#X obj 366 103 vradio 15 1 0 16 empty empty empty 0 -8 0 10 -262144
-1 -1 13;
#X obj 430 535 i;
#X obj 381 103 vradio 15 1 0 16 empty empty empty 0 -8 0 10 -262144
-1 -1 14;
#X obj 454 535 i;
#X obj 396 103 vradio 15 1 0 16 empty empty empty 0 -8 0 10 -262144
-1 -1 15;
#X obj 478 535 i;
#X obj 228 617 s to_serial;
#X floatatom 102 158 5 0 0 3 OUT to_serial -;
#X obj 171 368 hradio 15 1 0 16 s_min r_min MIN -20 8 0 10 -262144
-1 -1 0;
#X obj 171 385 hradio 15 1 0 16 s_max r_max MAX -20 8 0 10 -262144
-1 -1 15;
#X obj 153 105 vsl 15 235 20 2000 0 0 empty set_tempo empty 0 -9 0
10 -262144 -1 -1 1400 0;
#X obj -154 179 r s_current;
#X obj -34 179 r s_max;
#X obj -82 179 r s_min;
#X msg -82 199 min \$1;
#X msg -34 198 max \$1;
#X msg -154 198 set \$1;
#X obj -115 47 loadbang;
#X msg 305 32 0;
#X obj 102 327 bng 15 250 50 0 clear empty Clear 17 7 0 10 -262144
-1 -1;
#X obj 305 12 r clear;
#X obj -3 242 metro 250;
#X msg -115 68 \; r_min 0 \; r_max 15 \; set_tempo 250 \;;
#X obj 33 142 sel 0;
#X msg 33 165 0;
#X msg 382 20 0 1 2 3 4 5 6 7 8 9 10 11 12 13 14 15;
#X obj 383 60 unpack f f f f f f f f f f f f f f f f;
#X msg 660 48 1 1 3 3 5 5 7 7 8 8 10 10 12 12 14 14;
#X msg 800 157 rewind;
#X obj 795 546 print done;
#X text 963 315 read a file;
#X text 1019 344 write one;
#X obj 739 495 textfile;
#X msg 802 318 read textfile.txt;
#X text 883 158 go to beginning;
#X msg 800 184 bang;
#X text 883 183 output one line as a list;
#X msg 802 373 write /tmp/textfile2.txt cr;
#X text 811 394 write a file \, terminating lines only with carriage
return (omitting semicolons.) You can read files this way too \, in
which case carriage returns are mapped to semicolons.;
#X obj 739 568 print list;
#X msg 801 442 read textfile.txt cr;
#X msg 800 212 clear;
#X text 955 213 empty the object;
#X text 955 241 add a message;
#X text 826 515 This outlet gets a bang when you hit the end of the
sequence.;
#X msg 800 292 set 2 4 6 8;
#X text 958 293 clear and then add one message;
#X msg 800 239 add cis boom bah;
#X msg 800 266 add2 bang;
#X text 952 266 add an unterminated message;
#X msg 800 469 print;
#X text 854 472 debugging printout;
#X msg 802 346 write textfile.txt;
#X obj 625 202 coll;
#C restore;
#X connect 1 0 3 1;
#X connect 2 0 55 0;
#X connect 2 0 57 0;
#X connect 3 0 4 0;
#X connect 3 0 8 0;
#X connect 4 0 9 0;
#X connect 4 1 11 0;
#X connect 4 2 13 0;
#X connect 4 3 15 0;
#X connect 4 4 17 0;
#X connect 4 5 19 0;
#X connect 4 6 21 0;
#X connect 4 7 23 0;
#X connect 4 8 25 0;
#X connect 4 9 27 0;
#X connect 4 10 29 0;
#X connect 4 11 31 0;
#X connect 4 12 33 0;
#X connect 4 13 35 0;
#X connect 4 14 37 0;
#X connect 4 15 39 0;
#X connect 5 0 9 1;
#X connect 8 0 7 0;
#X connect 9 0 40 0;
#X connect 10 0 11 1;
#X connect 11 0 40 0;
#X connect 12 0 13 1;
#X connect 13 0 40 0;
#X connect 14 0 15 1;
#X connect 15 0 40 0;
#X connect 16 0 17 1;
#X connect 17 0 40 0;
#X connect 18 0 19 1;
#X connect 19 0 40 0;
#X connect 20 0 21 1;
#X connect 21 0 40 0;
#X connect 22 0 23 1;
#X connect 23 0 40 0;
#X connect 24 0 25 1;
#X connect 25 0 40 0;
#X connect 26 0 27 1;
#X connect 27 0 40 0;
#X connect 28 0 29 1;
#X connect 29 0 40 0;
#X connect 30 0 31 1;
#X connect 31 0 40 0;
#X connect 32 0 33 1;
#X connect 33 0 40 0;
#X connect 34 0 35 1;
#X connect 35 0 40 0;
#X connect 36 0 37 1;
#X connect 37 0 40 0;
#X connect 38 0 39 1;
#X connect 39 0 40 0;
#X connect 44 0 55 1;
#X connect 45 0 50 0;
#X connect 46 0 49 0;
#X connect 47 0 48 0;
#X connect 48 0 3 0;
#X connect 49 0 3 0;
#X connect 50 0 3 0;
#X connect 51 0 56 0;
#X connect 52 0 5 0;
#X connect 52 0 10 0;
#X connect 52 0 12 0;
#X connect 52 0 14 0;
#X connect 52 0 16 0;
#X connect 52 0 18 0;
#X connect 52 0 20 0;
#X connect 52 0 22 0;
#X connect 52 0 24 0;
#X connect 52 0 26 0;
#X connect 52 0 28 0;
#X connect 52 0 30 0;
#X connect 52 0 32 0;
#X connect 52 0 34 0;
#X connect 52 0 36 0;
#X connect 52 0 38 0;
#X connect 54 0 52 0;
#X connect 55 0 3 0;
#X connect 57 0 58 0;
#X connect 58 0 40 0;
#X connect 59 0 60 0;
#X connect 60 0 5 0;
#X connect 60 1 10 0;
#X connect 60 2 12 0;
#X connect 60 3 14 0;
#X connect 60 4 16 0;
#X connect 60 5 18 0;
#X connect 60 6 20 0;
#X connect 60 7 22 0;
#X connect 60 8 24 0;
#X connect 60 9 26 0;
#X connect 60 10 28 0;
#X connect 60 11 30 0;
#X connect 60 12 32 0;
#X connect 60 13 34 0;
#X connect 60 14 36 0;
#X connect 60 15 38 0;
#X connect 61 0 60 0;
#X connect 62 0 66 0;
#X connect 66 0 73 0;
#X connect 66 0 60 0;
#X connect 66 1 63 0;
#X connect 67 0 66 0;
#X connect 69 0 66 0;
#X connect 71 0 66 0;
#X connect 74 0 66 0;
#X connect 75 0 66 0;
#X connect 79 0 66 0;
#X connect 81 0 66 0;
#X connect 82 0 66 0;
#X connect 84 0 66 0;
#X connect 86 0 66 0;
#X coords 0 -1 1 1 314 303 2 100 100;
