max v2;#N vpatcher 42 56 533 687;#P origin 0 19;#P window setfont "Sans Serif" 9.;#P window linecount 1;#P comment 322 328 118 196617 turn off audio when done;#P flonum 186 150 35 9 0 0 0 3 0 0 0 221 221 221 222 222 222 0 0 0;#P flonum 145 150 35 9 0 0 0 3 0 0 0 221 221 221 222 222 222 0 0 0;#P flonum 106 149 35 9 0 0 0 3 0 0 0 221 221 221 222 222 222 0 0 0;#P flonum 123 68 56 9 0 0 0 3 0 0 0 221 221 221 222 222 222 0 0 0;#P newex 94 93 39 196617 *~ 1.;#P newex 94 207 84 196617 reson~ 1. 200 1.;#P button 325 117 15 0;#P message 62 322 75 196617 moveto 30 200;#P button 221 54 15 0;#P number 308 84 87 9 0 0 0 3 0 0 0 221 221 221 222 222 222 0 0 0;#N vpatcher 40 55 399 479;#P origin 0 60;#P window setfont "Sans Serif" 9.;#P newex 83 327 27 196617 gate;#P newex 167 283 34 196617 < 200;#P outlet 83 369 15 0;#P inlet 167 152 15 0;#P inlet 100 213 15 0;#P inlet 54 45 15 0;#P newex 167 196 27 196617 gate;#P newex 218 80 45 196617 loadbang;#P message 218 105 45 196617 absolute;#P newex 184 164 74 196617 snapshot~ 100;#P message 100 283 63 196617 lineto \$1 \$2;#P newex 100 258 45 196617 pack 0 0;#P newex 184 139 75 196617 average~ 8820;#P newex 167 224 123 196617 expr 0 - log10($f1) * 80;#P connect 12 0 13 0;#P connect 13 0 11 0;#P connect 9 0 2 0;#P connect 2 0 3 0;#P connect 3 0 13 1;#P connect 0 0 2 1;#P connect 10 0 7 0;#P connect 7 0 0 0;#P fasten 0 0 12 0 172 250 172 250;#P connect 5 0 1 0;#P fasten 8 0 1 0 59 99 189 99;#P connect 1 0 4 0;#P connect 4 0 7 1;#P connect 6 0 5 0;#P pop;#P newobj 224 301 54 196617 p measure;#N vpatcher 206 55 956 461;#P window setfont "Sans Serif" 9.;#P newex 650 215 27 196617 - 1;#P newex 653 244 29 196617 * -6;#P newex 526 278 28 196617 pack;#P message 526 329 112 196617 moveto 6 \$1 \, write \$2;#P button 558 153 15 0;#P newex 558 179 40 196617 uzi 8;#P newex 526 214 118 196617 expr ( $i1-1) * 24 + 20;#P message 100 267 135 196617 moveto 330 230 \, write 20k;#P newex 234 183 25 196617 iter;#P message 234 151 314 196617 20 30 40 50 60 70 80 90 100 200 300 400 500 600 700 800 900 1000 2000 3000 4000 5000 6000 7000 8000 9000 10000 20000;#P inlet 148 30 15 0;#P outlet 224 374 15 0;#P message 44 185 124 196617 moveto 27 230 \, write 20;#P message 86 249 135 196617 moveto 300 230 \, write 10k;#P message 70 226 129 196617 moveto 200 230 \, write 1k;#P message 57 205 135 196617 moveto 100 230 \, write 100;#P message 687 129 31 196617 clear;#P newex 150 47 53 196617 t b b b b;#P button 272 91 15 0;#P newex 234 287 94 196617 pack 0. 210 0. 215;#P newex 234 311 99 196617 prepend linesegment;#P newex 234 206 135 196617 expr log10($f1) * 100 - 98;#P message 10 161 75 196617 moveto 30 200;#P connect 5 0 0 0;#P connect 5 1 10 0;#P connect 5 1 7 0;#P connect 5 1 8 0;#P connect 5 1 9 0;#P connect 5 1 15 0;#P connect 12 0 5 0;#P fasten 2 0 11 0 239 351 229 351;#P fasten 6 0 11 0 692 359 229 359;#P fasten 9 0 11 0 91 325 229 325;#P fasten 8 0 11 0 75 318 229 318;#P fasten 7 0 11 0 62 308 229 308;#P fasten 10 0 11 0 49 298 229 298;#P fasten 0 0 11 0 15 330 229 330;#P connect 15 0 11 0;#P fasten 19 0 11 0 531 359 229 359;#P connect 4 0 13 0;#P connect 13 0 14 0;#P connect 14 0 1 0;#P connect 1 0 3 0;#P connect 3 0 2 0;#P connect 5 2 4 0;#P connect 1 0 3 2;#P connect 17 2 16 0;#P connect 16 0 20 0;#P connect 20 0 19 0;#P connect 21 0 20 1;#P connect 5 2 18 0;#P connect 18 0 17 0;#P connect 17 2 22 0;#P connect 22 0 21 0;#P connect 5 3 6 0;#P pop;#P newobj 314 156 44 196617 p legend;#P button 284 39 35 0;#P user ezdac~ 19 267 63 300 0;#N vpatcher 30 70 478 519;#P window setfont "Sans Serif" 9.;#P message 102 279 20 196617 30;#P button 147 305 15 0;#P newex 147 328 41 196617 int 100;#P newex 127 352 30 196617 line~;#P message 233 128 14 196617 1;#P message 303 279 14 196617 0;#P newex 233 164 55 196617 metro 100;#P message 193 187 32 196617 reset;#P newex 233 233 80 196617 lcount 1 30 330;#P newex 127 278 170 196617 expr pow(10\\\, ($f1 + 100) / 100.);#P inlet 352 129 15 0;#P inlet 102 27 15 0;#P message 375 263 14 196617 0;#P message 388 176 14 196617 1;#P outlet 376 371 15 0;#P newex 233 99 53 196617 delay 200;#P outlet 268 260 15 0;#P button 102 51 15 0;#P outlet 127 412 15 0;#P newex 127 375 45 196617 cycle~ 1;#P connect 8 0 2 0;#P connect 2 0 19 0;#P fasten 11 1 10 0 273 257 132 257;#P connect 10 0 16 0;#P fasten 19 0 16 0 107 338 132 338;#P connect 16 0 0 0;#P connect 0 0 1 0;#P connect 10 0 18 0;#P connect 18 0 17 0;#P connect 17 0 16 1;#P fasten 9 0 17 1 357 320 183 320;#P fasten 2 0 12 0 107 72 198 72;#P fasten 2 0 4 0 107 72 238 72;#P connect 4 0 15 0;#P fasten 14 0 13 0 308 299 341 299 341 155 238 155;#P connect 15 0 13 0;#P fasten 12 0 11 0 198 217 238 217;#P connect 13 0 11 0;#P connect 11 1 3 0;#P connect 9 0 13 1;#P connect 11 2 14 0;#P fasten 2 0 7 0 107 72 380 72;#P fasten 6 0 5 0 393 344 381 344;#P connect 7 0 5 0;#P connect 14 0 5 0;#P fasten 4 0 6 0 238 121 393 121;#P pop;#P newobj 221 113 58 196617 p filtsweep;#P comment 338 66 66 196617 sweep time;#P user lcd 62 359 373 250 1 1 0 0 0;#P comment 342 117 100 196617 clear graph;#P comment 323 45 58 196617 new test;#P comment 111 230 100 196617 filter under test;#P comment 66 277 44 196617 audio on;#P comment 64 304 100 196617 retest (step 1);#P comment 201 33 75 196617 retest (step 3);#P comment 323 183 100 196617 to test:;#P comment 323 197 100 196617 Turn on audio;#P comment 323 210 100 196617 hit new test;#P comment 323 225 118 196617 turn off audio when done;#P comment 324 253 100 196617 to add second graph;#P window linecount 2;#P comment 323 269 121 196617 hit moveto (edit location if necessary);#P window linecount 1;#P comment 322 312 100 196617 hit retest;#P comment 323 296 100 196617 turn on audio;#P comment 134 87 55 196617 input level;#P connect 26 0 18 0;#P hidden fasten 20 0 15 0 319 351 67 351;#P hidden fasten 21 0 15 0 229 348 67 348;#P hidden connect 24 0 15 0;#P fasten 17 0 27 0 226 142 184 142 184 61 99 61;#P connect 27 0 26 0;#P connect 29 0 26 1;#P connect 28 0 27 1;#P connect 30 0 26 2;#P connect 31 0 26 3;#P fasten 19 0 17 0 289 94 226 94;#P connect 23 0 17 0;#P fasten 26 0 21 0 99 263 229 263;#P connect 17 1 21 1;#P connect 17 2 21 2;#P connect 22 0 17 1;#P connect 25 0 20 0;#P fasten 19 0 20 0 289 115 319 115;#P pop;