#N canvas 256 0 496 709 10;
#X obj 101 101 cnv 15 348 98 empty empty Random_Number_0-15 20 12 0
14 -232576 -66577 0;
#X obj 188 147 hsl 256 50 20 5000 0 0 \$0-metro_delay_out \$0-metro_delay_in
metro_delay 10 25 0 25 -258113 -262144 -4032 0 1;
#N canvas 0 0 1020 691 random_guts 0;
#X obj 167 74 metro;
#X text 211 79 this is a thing;
#X obj 167 106 random 15;
#X floatatom 206 61 5 0 0 0 - - -;
#X obj 167 9 r \$0-metro_on_off_out;
#X obj 194 36 r \$0-metro_delay_out;
#X obj 167 132 s \$0-random_out;
#X connect 0 0 2 0;
#X connect 2 0 6 0;
#X connect 4 0 0 0;
#X connect 5 0 3 0;
#X connect 5 0 0 1;
#X restore 100 207 pd random_guts;
#X floatatom 107 174 5 0 0 1 rando \$0-random_out -;
#X obj 106 144 tgl 15 0 \$0-metro_on_off_out \$0-metro_on_off_in On/Off
17 7 0 10 -262144 -1 -1 0 1;
#X floatatom 340 126 12 0 0 1 delay \$0-metro_delay_out -;
#X coords 0 -1 1 1 350 100 2 100 100;
