#N canvas 0 0 1008 709 10;
#X obj 101 101 cnv 15 312 301 empty empty empty 20 12 0 14 -261682
-66577 0;
#X obj 136 103 vradio 15 1 0 3 empty empty DIR -20 40 0 10 -262144
-1 -1 0;
#X obj 103 103 tgl 30 0 empty empty RUN 2 10 0 10 -262144 -1 -1 0 1
;
#X obj -3 277 counter 15;
#X obj 118 497 sel 0 1 2 3 4 5 6 7 8 9 10 11 12 13 14 15;
#X obj 171 103 vradio 15 1 0 16 empty empty empty 0 -8 0 10 -262144
-1 -1 0;
#X obj 171 348 hradio 15 1 0 16 s_current GUI POS -20 8 0 10 -262144
-1 -1 0;
#X obj 6 321 s GUI;
#X msg 6 301 set \$1;
#X obj 118 535 i;
#X obj 186 103 vradio 15 1 0 16 empty empty empty 0 -8 0 10 -262144
-1 -1 0;
#X obj 142 535 i;
#X obj 201 103 vradio 15 1 0 16 empty empty empty 0 -8 0 10 -262144
-1 -1 0;
#X obj 166 535 i;
#X obj 216 103 vradio 15 1 0 16 empty empty empty 0 -8 0 10 -262144
-1 -1 0;
#X obj 190 535 i;
#X obj 231 103 vradio 15 1 0 16 empty empty empty 0 -8 0 10 -262144
-1 -1 0;
#X obj 214 535 i;
#X obj 246 103 vradio 15 1 0 16 empty empty empty 0 -8 0 10 -262144
-1 -1 0;
#X obj 238 535 i;
#X obj 261 103 vradio 15 1 0 16 empty empty empty 0 -8 0 10 -262144
-1 -1 11;
#X obj 262 535 i;
#X obj 276 103 vradio 15 1 0 16 empty empty empty 0 -8 0 10 -262144
-1 -1 0;
#X obj 286 535 i;
#X obj 291 103 vradio 15 1 0 16 empty empty empty 0 -8 0 10 -262144
-1 -1 0;
#X obj 310 535 i;
#X obj 306 103 vradio 15 1 0 16 empty empty empty 0 -8 0 10 -262144
-1 -1 0;
#X obj 334 535 i;
#X obj 321 103 vradio 15 1 0 16 empty empty empty 0 -8 0 10 -262144
-1 -1 0;
#X obj 358 535 i;
#X obj 336 103 vradio 15 1 0 16 empty empty empty 0 -8 0 10 -262144
-1 -1 0;
#X obj 382 535 i;
#X obj 351 103 vradio 15 1 0 16 empty empty empty 0 -8 0 10 -262144
-1 -1 0;
#X obj 406 535 i;
#X obj 366 103 vradio 15 1 0 16 empty empty empty 0 -8 0 10 -262144
-1 -1 0;
#X obj 430 535 i;
#X obj 381 103 vradio 15 1 0 16 empty empty empty 0 -8 0 10 -262144
-1 -1 0;
#X obj 454 535 i;
#X obj 396 103 vradio 15 1 0 16 empty empty empty 0 -8 0 10 -262144
-1 -1 0;
#X obj 478 535 i;
#X obj 228 617 s to_serial;
#X floatatom 102 158 5 0 0 3 OUT to_serial -;
#X obj 171 368 hradio 15 1 0 16 s_min r_min MIN -20 8 0 10 -262144
-1 -1 0;
#X obj 171 385 hradio 15 1 0 16 s_max r_max MAX -20 8 0 10 -262144
-1 -1 15;
#X obj 153 105 vsl 15 235 20 2000 0 0 empty set_tempo empty 0 -9 0
10 -262144 -1 -1 2718 0;
#X obj -154 179 r s_current;
#X obj -34 179 r s_max;
#X obj -82 179 r s_min;
#X msg -82 199 min \$1;
#X msg -34 198 max \$1;
#X msg -154 198 set \$1;
#X obj -115 47 loadbang;
#X msg 305 32 0;
#X obj 102 327 bng 15 250 50 0 clear empty Clear 17 7 0 10 -262144
-1 -1;
#X obj 305 12 r clear;
#X obj -3 242 metro 250;
#X msg -115 68 \; r_min 0 \; r_max 15 \; set_tempo 250 \;;
#X obj 33 142 sel 0;
#X msg 33 165 0;
#X obj 55 -7 unpack f f f f f f f f f f f f f f f f;
#X msg 55 -62 0 1 2 3 4 5 6 7 8 9 10 11 12 13 14 15;
#X msg 55 -41 2 3 2 3 7 13 6 12 11 10 9 8 9 10 0 15;
#X obj 544 248 print done;
#X msg 501 -19 rewind;
#X text 688 108 read a file;
#X text 611 -24 go to beginning;
#X msg 501 3 bang;
#X text 611 -2 output one line as a list;
#X msg 501 25 clear;
#X text 611 20 empty the object;
#X text 667 43 add a message;
#X msg 501 91 set 2 4 6 8;
#X text 667 87 clear and then add one message;
#X msg 560 197 print;
#X text 604 197 debugging printout;
#X text 695 131 write a file;
#X obj 499 223 textfile;
#X obj 499 270 print message;
#X msg 501 113 read sequence_01.txt;
#X msg 501 135 write sequence_01.txt;
#X obj -60 451 pack f f f f f f f f f f f f f f f f;
#X obj 583 386 spigot;
#X obj 620 328 qlist;
#X msg 501 47 add \$1 \$2 \$3 \$4 \$5 \$6 \$7 \$8 \$9 \$10 \$11 \$12
\$13 \$14 \$15 \$16;
#X obj 477 332 coll;
#C restore;
#X connect 1 0 3 1;
#X connect 2 0 55 0;
#X connect 2 0 57 0;
#X connect 3 0 4 0;
#X connect 3 0 8 0;
#X connect 4 0 9 0;
#X connect 4 1 11 0;
#X connect 4 2 13 0;
#X connect 4 3 15 0;
#X connect 4 4 17 0;
#X connect 4 5 19 0;
#X connect 4 6 21 0;
#X connect 4 7 23 0;
#X connect 4 8 25 0;
#X connect 4 9 27 0;
#X connect 4 10 29 0;
#X connect 4 11 31 0;
#X connect 4 12 33 0;
#X connect 4 13 35 0;
#X connect 4 14 37 0;
#X connect 4 15 39 0;
#X connect 5 0 9 1;
#X connect 5 0 80 0;
#X connect 8 0 7 0;
#X connect 9 0 40 0;
#X connect 10 0 11 1;
#X connect 10 0 80 1;
#X connect 11 0 40 0;
#X connect 12 0 13 1;
#X connect 12 0 80 2;
#X connect 13 0 40 0;
#X connect 14 0 15 1;
#X connect 14 0 80 3;
#X connect 15 0 40 0;
#X connect 16 0 17 1;
#X connect 16 0 80 4;
#X connect 17 0 40 0;
#X connect 18 0 19 1;
#X connect 18 0 80 5;
#X connect 19 0 40 0;
#X connect 20 0 21 1;
#X connect 20 0 80 6;
#X connect 21 0 40 0;
#X connect 22 0 23 1;
#X connect 22 0 80 7;
#X connect 23 0 40 0;
#X connect 24 0 25 1;
#X connect 24 0 80 8;
#X connect 25 0 40 0;
#X connect 26 0 27 1;
#X connect 26 0 80 9;
#X connect 27 0 40 0;
#X connect 28 0 29 1;
#X connect 28 0 80 10;
#X connect 29 0 40 0;
#X connect 30 0 31 1;
#X connect 30 0 80 11;
#X connect 31 0 40 0;
#X connect 32 0 33 1;
#X connect 32 0 80 12;
#X connect 33 0 40 0;
#X connect 34 0 35 1;
#X connect 34 0 80 13;
#X connect 35 0 40 0;
#X connect 36 0 37 1;
#X connect 36 0 80 14;
#X connect 37 0 40 0;
#X connect 38 0 39 1;
#X connect 38 0 80 15;
#X connect 39 0 40 0;
#X connect 44 0 55 1;
#X connect 45 0 50 0;
#X connect 46 0 49 0;
#X connect 47 0 48 0;
#X connect 48 0 3 0;
#X connect 49 0 3 0;
#X connect 50 0 3 0;
#X connect 51 0 56 0;
#X connect 52 0 5 0;
#X connect 52 0 10 0;
#X connect 52 0 12 0;
#X connect 52 0 14 0;
#X connect 52 0 16 0;
#X connect 52 0 18 0;
#X connect 52 0 20 0;
#X connect 52 0 22 0;
#X connect 52 0 24 0;
#X connect 52 0 26 0;
#X connect 52 0 28 0;
#X connect 52 0 30 0;
#X connect 52 0 32 0;
#X connect 52 0 34 0;
#X connect 52 0 36 0;
#X connect 52 0 38 0;
#X connect 54 0 52 0;
#X connect 55 0 3 0;
#X connect 57 0 58 0;
#X connect 58 0 40 0;
#X connect 59 0 5 0;
#X connect 59 1 10 0;
#X connect 59 2 12 0;
#X connect 59 3 14 0;
#X connect 59 4 16 0;
#X connect 59 5 18 0;
#X connect 59 6 20 0;
#X connect 59 7 22 0;
#X connect 59 8 24 0;
#X connect 59 9 26 0;
#X connect 59 10 28 0;
#X connect 59 11 30 0;
#X connect 59 12 32 0;
#X connect 59 13 34 0;
#X connect 59 14 36 0;
#X connect 59 15 38 0;
#X connect 60 0 59 0;
#X connect 61 0 59 0;
#X connect 63 0 76 0;
#X connect 66 0 76 0;
#X connect 68 0 76 0;
#X connect 71 0 76 0;
#X connect 73 0 76 0;
#X connect 76 0 77 0;
#X connect 76 1 62 0;
#X connect 78 0 76 0;
#X connect 79 0 76 0;
#X connect 83 0 76 0;
#X coords 0 -1 1 1 314 303 2 100 100;
